<?xml version="1.0" standalone="no"?>
<!DOCTYPE svg PUBLIC "-//W3C//DTD SVG 1.1//EN" "http://www.w3.org/Graphics/SVG/1.1/DTD/svg11.dtd">
<svg xmlns="http://www.w3.org/2000/svg">
<defs >
<font id="Manuale" horiz-adv-x="524" ><font-face
    font-family="Manuale SemiBold"
    units-per-em="1000"
    panose-1="0 0 0 0 0 0 0 0 0 0"
    ascent="980"
    descent="-236"
    alphabetic="0" />
<glyph unicode=" " horiz-adv-x="181" />
<glyph unicode="!" horiz-adv-x="227" d="M78 188L47 613H180L149 188H78ZM113 -8Q85 -8 68 10T50 54Q50 81 67 100T113 120Q140 120 158 101T177 54Q177 28 159 10T113 -8Z" />
<glyph unicode="&quot;" horiz-adv-x="336" d="M75 468L41 700H145L110 468H75ZM227 468L192 700H295L260 468H227Z" />
<glyph unicode="#" horiz-adv-x="557" d="M71 -8L119 162H0L19 231H137L164 326H43L63 395H182L230 566H304L255 395H377L423 566H497L450 395H557L538 326H431L404 231H515L494 162H387L339 -8H265L314 162H192L145 -8H71ZM210 231H332L359 326H236L210 231Z" />
<glyph unicode="$" horiz-adv-x="526" d="M229 -117V2Q187 3 142 11T60 32L73 155H122L139 72Q156 68 183 63T240 58Q297 58 330 82T364 148Q364 183 343 205T276 245L171 287Q142 299 119 317T83 366T69 442Q69 517 114 562T244 614V716H303V615Q339 614 375
606T446 587L436 456H390L367 550Q355 554 330 556T287 559Q256 559 229 551T185 524T168 472Q168 433 192 412T258 373L363 330Q413 310 440 273T467 170Q467 104 422 60T287 4V-117H229Z" />
<glyph unicode="%" horiz-adv-x="910" d="M306 0L530 613H605L381 0H306ZM209 178Q163 178 124 199T62 270T39 403Q39 487 62 536T124 606T209 628Q256 628 294 607T354 537T377 403Q377 319 355 270T294 199T209 178ZM210 258Q234 258 258 270T300 314T317 407Q317
466 300 496T259 538T210 549Q186 549 161 538T119 495T102 402Q102 343 119 312T161 269T210 258ZM702 -8Q655 -8 617 13T555 85T532 217Q532 302 555 351T616 421T702 443Q749 443 786 422T846 352T868 217Q868 133 846 84T787 13T702 -8ZM703 72Q727 72 751
84T792 129T809 221Q809 280 792 311T751 353T703 364Q679 364 654 353T612 310T595 217Q595 158 611 127T653 84T703 72Z" />
<glyph unicode="&amp;" horiz-adv-x="599" d="M225 -8Q158 -8 116 15T55 74T36 150Q36 201 54 236T103 296T167 339Q138 378 121 417T103 490Q103 531 120 558T163 600T218 621T272 627Q316 627 351 614T406 576T426 511Q426 469 408 440T358 387T289 341Q317
310 351 271T425 184Q435 208 439 233T444 286L404 299V339H585V300L509 285Q505 249 496 212T468 138L543 59L619 40V0H457L405 52Q373 23 330 8T225 -8ZM252 50Q291 50 321 61T372 92Q349 118 319 149T258 216T200 287Q180 272 167 255T148 219T142 174Q142 114
170 82T252 50ZM254 390Q287 409 311 433T335 498Q335 513 330 529T311 556T269 568Q239 568 223 551T206 503Q206 474 220 445T254 390Z" />
<glyph unicode="&apos;" horiz-adv-x="186" d="M75 468L41 700H145L110 468H75Z" />
<glyph unicode="(" horiz-adv-x="315" d="M289 -182Q218 -162 174 -130T106 -46T73 81T63 265Q63 373 72 449T105 577T173 660T289 714L300 676Q260 658 234 625T194 549T174 457T167 360T165 265Q165 221 166 172T174 74T194 -18T234 -94T300 -145L289 -182Z" />
<glyph unicode=")" horiz-adv-x="315" d="M25 -182L14 -145Q55 -128 81 -95T121 -18T142 73T149 171T151 265Q151 310 150 359T142 457T122 548T81 625T14 676L25 714Q96 693 140 661T208 577T241 450T250 265Q250 157 241 81T208 -46T140 -129T25 -182Z" />
<glyph unicode="*" horiz-adv-x="347" d="M116 421L38 477L120 561L117 569L3 588L30 679L138 626L144 630L126 748H219L203 630L210 625L316 679L344 588L229 569L226 561L308 477L231 421L178 525H169L116 421Z" />
<glyph unicode="+" horiz-adv-x="510" d="M219 102V269H53V339H219V505H289V339H457V269H289V102H219Z" />
<glyph unicode="," horiz-adv-x="192" d="M74 -117L33 -109L47 109L140 130L165 105L74 -117Z" />
<glyph unicode="-" horiz-adv-x="282" d="M9 206V271H274V206H9Z" />
<glyph unicode="." horiz-adv-x="208" d="M104 -8Q74 -8 51 13T28 64Q28 96 51 118T104 140Q135 140 157 118T179 64Q179 34 157 13T104 -8Z" />
<glyph unicode="/" horiz-adv-x="364" d="M5 -139L275 697H360L87 -139H5Z" />
<glyph unicode="0" horiz-adv-x="507" d="M253 -11Q192 -11 143 20T64 122T34 312Q34 402 51 463T100 562T172 616T259 633Q323 633 371 603T446 503T473 312Q473 192 444 121T365 20T253 -11ZM255 87Q278 87 302 97T345 132T377 202T389 317Q389 385 377 428T346
495T302 528T255 537Q231 537 207 528T164 495T132 426T120 310Q120 242 132 198T164 130T207 97T255 87Z" />
<glyph unicode="1" horiz-adv-x="507" d="M64 0V43L226 71V532H69V577L338 617V70L478 43V0H64Z" />
<glyph unicode="2" horiz-adv-x="507" d="M36 0L15 63L229 279Q257 306 276 334T306 393T317 455Q317 497 289 525T203 553Q166 553 133 542T63 517L37 575Q77 595 128 611T238 628Q295 628 341 613T414 562T441 465Q441 421 424 382T376 306T303 227L129 71L377
79L416 160H468L454 0H36Z" />
<glyph unicode="3" horiz-adv-x="507" d="M216 -11Q167 -11 119 -1T31 24L48 86Q99 68 132 62T190 56Q227 56 258 68T307 107T326 174Q326 215 311 239T270 275T213 291T151 295L147 347Q232 357 266 392T300 475Q300 513 278 534T208 556Q185 556 147 548T66
520L41 574Q66 589 99 601T170 621T244 628Q292 628 331 614T393 569T416 493Q416 455 401 425T359 372T300 335Q367 322 406 279T446 174Q446 82 388 36T216 -11Z" />
<glyph unicode="4" horiz-adv-x="507" d="M287 0V137H10L-6 183L306 622L394 613V203H476V137H394V0H287ZM97 203H287V474L97 203Z" />
<glyph unicode="5" horiz-adv-x="507" d="M227 -12Q174 -12 127 -2T38 24L59 88Q93 76 117 69T161 60T197 57Q258 57 297 89T337 179Q337 259 277 288T98 318L72 344L98 613H425V537H169L158 386Q258 384 318 366T408 318T447 253T457 182Q457 95 399 42T227 -12Z" />
<glyph unicode="6" horiz-adv-x="507" d="M243 -13Q177 -13 136 9T72 69T42 152T34 244Q34 328 52 392T103 501T174 574T257 615T340 628Q370 628 388 626T431 618L423 563Q401 567 387 568T355 569Q315 569 280 553T217 506T172 430T151 324Q165 339 185 352T233
374T296 383Q359 383 398 359T456 293T475 200Q475 169 466 133T432 63T362 8T243 -13ZM250 51Q308 51 334 88T361 180Q361 217 354 247T327 296T270 314Q230 314 199 291T149 237Q149 186 157 144T188 76T250 51Z" />
<glyph unicode="7" horiz-adv-x="507" d="M242 -12L127 1L385 535H124L104 457H45L38 613H458L475 558L242 -12Z" />
<glyph unicode="8" horiz-adv-x="507" d="M241 -12Q165 -12 122 8T63 61T46 137Q46 185 75 230T168 311Q121 340 93 377T64 473Q64 516 84 551T149 607T261 628Q333 628 373 610T430 561T447 494Q447 470 437 442T401 387T323 336Q360 317 390 295T438 243T456
167Q456 88 403 38T241 -12ZM241 46Q288 46 319 70T350 144Q350 173 338 194T304 231T253 263L220 281Q201 266 185 244T158 197T147 146Q147 92 173 69T241 46ZM264 365Q306 389 327 415T348 478Q348 524 326 547T261 570Q219 570 193 550T167 483Q167 448 193
419T264 365Z" />
<glyph unicode="9" horiz-adv-x="507" d="M203 -12Q161 -12 125 -6T46 17L60 77Q100 65 131 60T186 54Q230 54 261 69T312 111T341 179T352 270Q312 251 279 243T214 235Q156 235 115 258T53 324T31 422Q31 451 39 486T69 553T136 607T251 628Q318 628 360 604T425
538T458 445T468 339Q468 236 448 168T391 61T307 5T203 -12ZM238 303Q268 303 298 315T354 344Q354 393 350 433T335 502T302 547T244 564Q198 564 172 529T145 437Q145 364 172 334T238 303Z" />
<glyph unicode=":" horiz-adv-x="213" d="M106 -8Q77 -8 54 13T31 64Q31 96 54 118T106 140Q138 140 160 118T182 64Q182 34 160 13T106 -8ZM106 322Q77 322 54 343T31 395Q31 426 54 447T106 469Q138 469 160 448T182 395Q182 364 160 343T106 322Z" />
<glyph unicode=";" horiz-adv-x="195" d="M73 -117L32 -109L46 109L139 130L164 105L73 -117ZM97 322Q67 322 44 343T21 395Q21 426 44 447T97 469Q128 469 150 448T172 395Q172 364 150 343T97 322Z" />
<glyph unicode="&lt;" horiz-adv-x="510" d="M410 105L38 303L410 502L448 439L179 303L448 168L410 105Z" />
<glyph unicode="=" horiz-adv-x="510" d="M48 354V425H452V354H48ZM48 182V252H452V182H48Z" />
<glyph unicode="&gt;" horiz-adv-x="510" d="M88 105L50 168L318 303L50 439L88 502L460 303L88 105Z" />
<glyph unicode="?" horiz-adv-x="383" d="M114 181L95 301Q126 316 154 334T203 374T236 425T249 487Q249 529 224 548T160 567Q152 567 141 566T118 561L98 466H48L32 590Q58 604 100 616T186 628Q242 628 282 610T343 560T364 490Q364 461 357 433T329 377T272
322T176 268L167 181H114ZM140 -8Q113 -8 95 10T77 54Q77 81 95 100T140 120Q167 120 185 101T204 54Q204 28 186 10T140 -8Z" />
<glyph unicode="@" horiz-adv-x="742" d="M348 -80Q266 -80 208 -54T113 18T58 121T41 244Q41 302 59 357T116 458T219 530T372 557Q471 557 535 532T636 465T687 373T702 271Q702 218 686 178T642 110T577 69T499 55Q473 55 451 66T420 96Q397 77 371 66T318
54Q271 54 248 83T224 150Q224 166 229 184T254 219T311 246L415 272V314Q415 340 403 351T364 362Q337 362 306 354T251 337L236 377Q270 394 308 405T385 417Q442 417 475 399T508 332V142Q508 133 512 124T527 114Q554 114 572 134T598 192T607 285Q607 342
584 390T511 468T383 498Q294 498 241 464T163 371T139 239Q139 146 167 89T247 6T365 -20Q414 -20 469 -8T589 26L603 -18Q539 -49 475 -64T348 -80ZM356 117Q370 117 386 122T415 134V220L358 207Q332 200 324 188T315 158Q315 135 326 126T356 117Z" />
<glyph unicode="A" horiz-adv-x="594" d="M-5 0V40L66 63L254 613L326 626L528 63L599 41V0H342V41L406 60L374 153H169L140 62L209 41V0H-5ZM187 204H356L268 447L187 204Z" />
<glyph unicode="B" horiz-adv-x="561" d="M37 0V41L123 63V550L36 572V613H298Q375 613 421 594T488 542T509 465Q509 406 472 371T372 324Q459 311 498 270T538 169Q538 93 477 47T294 0H37ZM293 55Q327 55 355 67T399 105T416 175Q416 215 398 241T347 279T272
292H240V62Q252 59 265 57T293 55ZM240 342H275Q306 342 332 352T375 388T391 459Q391 511 364 534T293 558Q278 558 264 556T240 550V342Z" />
<glyph unicode="C" horiz-adv-x="549" d="M328 -10Q249 -10 194 15T103 84T51 187T34 311Q34 398 63 470T157 585T328 628Q392 628 434 619T512 599L502 455H457L432 553Q412 559 389 562T346 565Q288 565 251 544T194 487T166 405T158 311Q158 265 166 220T195
137T252 77T342 55Q362 55 385 58T432 68L457 154H504L512 22Q471 7 429 -1T328 -10Z" />
<glyph unicode="D" horiz-adv-x="649" d="M37 0V41L123 63V550L36 572V613H306Q417 613 485 576T584 473T616 319Q616 232 587 160T493 44T324 0H37ZM331 51Q382 51 413 74T462 137T485 224T492 319Q492 389 470 442T405 526T302 556Q281 556 266 554T240 550V65Q257
60 282 56T331 51Z" />
<glyph unicode="E" horiz-adv-x="544" d="M37 0V41L124 63V550L36 572V613H489V472H439L417 550H242V328H361L379 394H427V206H379L359 275H242V65H435L461 157H511V0H37Z" />
<glyph unicode="F" horiz-adv-x="508" d="M37 0V41L124 63V550L36 572V613H489V472H439L418 550H242V318H361L380 384H427V196H380L359 265H242V68L350 44V0H37Z" />
<glyph unicode="G" horiz-adv-x="612" d="M344 -10Q257 -10 198 15T102 85T50 188T34 311Q34 376 51 433T106 534T205 603T354 628Q384 628 418 625T483 615T536 599L524 455H474L449 553Q432 559 408 562T355 565Q294 565 255 541T195 479T166 397T158 311Q158
264 166 219T195 136T251 76T340 54Q359 54 379 56T421 66V225L333 247V289H599V246L535 227V32Q500 12 450 1T344 -10Z" />
<glyph unicode="H" horiz-adv-x="732" d="M36 0V41L122 63V550L36 572V613H326V572L239 550V333H492V550L405 572V613H695V572L609 550V63L695 41V0H405V41L492 63V277H239V63L326 41V0H36Z" />
<glyph unicode="I" horiz-adv-x="363" d="M37 0V41L123 63V550L36 572V613H327V572L240 550V63L327 41V0H37Z" />
<glyph unicode="J" horiz-adv-x="331" d="M72 -150Q34 -150 8 -141T-35 -119L-31 -85H39Q85 -85 98 -50T112 37V550L26 572V613H314V572L228 550V63Q228 -20 210 -66T156 -131T72 -150Z" />
<glyph unicode="K" horiz-adv-x="590" d="M36 0V41L122 63V550L36 572V613H313V571L239 550V339L433 555L374 572V613H579V573L509 552L327 345L516 66L593 41V0H430L239 283V63L313 42V0H36Z" />
<glyph unicode="L" horiz-adv-x="487" d="M36 0V41L122 63V550L36 572V613H326V572L239 550V65H404L429 157H479V0H36Z" />
<glyph unicode="M" horiz-adv-x="807" d="M349 -10L181 459L167 63L253 41V0H20V41L103 63L121 550L38 572V613H238L400 138L558 613H765V572L679 550L699 63L786 41V0H502V41L588 63L573 460L415 0L349 -10Z" />
<glyph unicode="N" horiz-adv-x="710" d="M513 -10L185 467V63L270 41V0H37V41L119 63V550L36 572V613H222L541 152V550L456 572V613H692V572L608 550V0L513 -10Z" />
<glyph unicode="O" horiz-adv-x="661" d="M332 -9Q227 -9 161 34T65 150T34 310Q34 397 64 469T159 584T332 627Q439 627 504 584T598 469T627 310Q627 223 598 151T503 35T332 -9ZM336 53Q390 53 423 78T473 142T495 225T501 310Q501 349 495 393T470 477T417
540T326 565Q273 565 240 541T190 477T167 394T160 310Q160 269 167 224T192 140T245 77T336 53Z" />
<glyph unicode="P" horiz-adv-x="539" d="M37 0V41L123 63V549L36 571V613H302Q362 613 412 594T493 536T524 438Q524 388 505 351T455 291T384 256T303 245Q299 245 287 245T261 247T240 251V63L345 42V0H37ZM280 292Q318 292 345 308T387 356T402 431Q402 491
374 524T298 557Q285 557 269 556T240 550V296Q248 294 258 293T280 292Z" />
<glyph unicode="Q" horiz-adv-x="661" d="M371 5Q406 -12 443 -28T512 -59T569 -81T604 -89H677L681 -123Q662 -134 629 -144T568 -155Q550 -155 531 -151T487 -135T423 -100L245 8L371 5ZM332 -9Q227 -9 161 34T65 150T34 310Q34 397 64 469T159 584T332 627Q439
627 504 584T598 469T627 310Q627 223 598 151T503 35T332 -9ZM336 53Q390 53 423 78T473 142T495 225T501 310Q501 349 495 393T470 477T417 540T326 565Q273 565 240 541T190 477T167 394T160 310Q160 269 167 224T192 140T245 77T336 53Z" />
<glyph unicode="R" horiz-adv-x="577" d="M37 0V41L124 63V550L36 572V613H305Q384 613 432 593T503 539T526 462Q526 422 510 389T462 331T382 294Q405 287 419 276T445 241T477 175T528 63L593 41V0H425Q394 78 373 128T338 208T314 251T294 268T270 272H241V63L321
41V0H37ZM241 322H289Q346 322 375 357T405 449Q405 503 376 531T294 559Q280 559 266 557T241 550V322Z" />
<glyph unicode="S" horiz-adv-x="474" d="M212 -10Q171 -10 122 -3T31 21L46 156H95L113 69Q129 65 155 60T213 54Q268 54 301 77T334 140Q334 178 314 201T247 243L148 284Q122 295 98 315T58 369T42 449Q42 533 96 580T251 628Q294 628 337 621T421 601L410
461H363L341 554Q328 559 303 562T260 565Q228 565 202 556T160 528T144 477Q144 438 168 415T233 374L330 334Q389 311 415 272T442 173Q442 90 384 40T212 -10Z" />
<glyph unicode="T" horiz-adv-x="530" d="M115 0V41L207 63V550H83L64 461H15L8 613H522L516 461H466L446 550H324V63L416 41V0H115Z" />
<glyph unicode="U" horiz-adv-x="658" d="M334 -9Q257 -9 210 12T137 72T103 160T94 265V550L7 572V613H298V572L211 550V265Q211 207 220 160T259 84T348 55Q402 55 435 79T483 146T498 242V550L412 572V613H650V572L566 550V236Q566 212 561 180T543 115T504
53T437 8T334 -9Z" />
<glyph unicode="V" horiz-adv-x="590" d="M266 -10L67 549L-4 572V613H253V572L190 552L319 168L323 147L328 169L450 550L381 572V613H595V573L524 549L338 3L266 -10Z" />
<glyph unicode="W" horiz-adv-x="803" d="M221 -10L67 549L-4 572V613H253V572L191 552L290 121L259 120L369 546L469 565L600 119H571L662 550L592 572V613H808V573L736 550L606 3L536 -10L396 457H414L291 3L221 -10Z" />
<glyph unicode="X" horiz-adv-x="597" d="M5 0V41L72 61L235 304L78 552L11 572V613H273V569L206 552L317 380L430 552L360 569V613H580V572L513 552L356 320L519 61L592 41V0H330V43L391 61L274 242L155 61L225 42V0H5Z" />
<glyph unicode="Y" horiz-adv-x="572" d="M138 0V41L230 63V245L74 549L4 572V613H267V571L202 550L314 328L424 551L353 571V613H569V573L497 549L346 245V63L439 41V0H138Z" />
<glyph unicode="Z" horiz-adv-x="506" d="M47 0L29 33L342 550H132L109 472H58L48 613H472L477 580L168 64H385L423 157H473L464 0H47Z" />
<glyph unicode="[" horiz-adv-x="315" d="M71 -167V697H290V655L172 647V-115L290 -123V-167H71Z" />
<glyph unicode="\" horiz-adv-x="364" d="M277 -139L5 697H89L360 -139H277Z" />
<glyph unicode="]" horiz-adv-x="315" d="M24 -167V-123L143 -115V647L24 655V697H243V-167H24Z" />
<glyph unicode="^" horiz-adv-x="472" d="M30 250L210 613H262L442 250H359L236 504L112 250H30Z" />
<glyph unicode="_" horiz-adv-x="441" d="M0 -72V-18H441V-72H0Z" />
<glyph unicode="`" horiz-adv-x="246" d="M226 558L0 665L3 686L93 722L246 587L226 558Z" />
<glyph unicode="a" horiz-adv-x="523" d="M160 -10Q123 -10 98 6T59 50T45 113Q45 139 55 168T93 221T173 256L314 283V358Q314 397 299 415T242 433Q222 433 202 430T164 420L142 336H89L72 464Q117 481 167 491T272 501Q321 501 356 491T411 455T431 382V74L508
50V12Q475 3 452 -1T404 -5Q375 -5 349 8T316 49Q279 22 242 6T160 -10ZM221 64Q245 64 271 74T314 95V230L238 214Q195 205 179 182T162 127Q162 93 178 79T221 64Z" />
<glyph unicode="b" horiz-adv-x="562" d="M281 -10Q254 -10 217 -7T145 3T85 17V641L3 652V691L164 730H202V475Q221 486 250 493T308 501Q412 501 471 441T531 250Q531 202 521 156T483 73T406 13T281 -10ZM281 50Q330 50 356 72T394 138T405 248Q405 310 395
352T359 418T283 441Q258 441 239 436T202 420V64Q213 58 234 54T281 50Z" />
<glyph unicode="c" horiz-adv-x="445" d="M256 -10Q175 -10 125 25T53 117T31 244Q31 316 53 374T124 466T256 501Q306 501 345 494T426 470L407 336H357L335 427Q318 433 302 436T266 440Q221 440 198 415T166 346T157 246Q157 194 163 158T184 100T220 68T274
58Q305 58 342 63T421 81L428 41Q394 19 350 5T256 -10Z" />
<glyph unicode="d" horiz-adv-x="572" d="M200 -10Q143 -10 106 26T50 120T31 244Q31 363 88 432T248 501Q277 501 301 496T341 484T359 476V641L276 652V691L437 730H476V74L557 50V12Q525 3 499 -1T448 -5Q420 -5 394 8T362 47Q328 22 289 6T200 -10ZM257 63Q288
63 316 75T359 99V413Q342 426 318 433T269 441Q213 441 185 388T157 246Q157 165 180 114T257 63Z" />
<glyph unicode="e" horiz-adv-x="479" d="M265 -10Q200 -10 155 9T82 62T43 143T31 244Q31 314 47 363T94 442T166 487T255 501Q357 501 404 455T452 311Q452 304 452 293T451 271T448 250H157V223Q157 163 173 127T221 74T296 57Q326 57 364 63T439 80L446 41Q411
18 368 4T265 -10ZM159 298L331 308V330Q331 363 326 387T305 425T260 439Q223 439 202 424T171 376T159 298Z" />
<glyph unicode="f" horiz-adv-x="376" d="M30 0V44L112 64V427H31V469L112 501Q112 574 138 625T214 703T330 730Q347 730 368 727T406 718T431 707L414 573H359L343 648Q334 651 324 653T305 655Q272 655 256 639T234 593T229 524V492H379V420L230 429V67L346 47V0H30Z" />
<glyph unicode="g" horiz-adv-x="513" d="M224 -177Q161 -177 122 -169T63 -146T35 -115T27 -79Q27 -57 40 -31T95 21Q75 28 66 46T56 81Q56 108 77 135T123 187Q84 210 69 249T54 333Q54 380 76 419T141 480T247 503Q286 503 314 496T365 475L502 514V434H402Q420
416 430 388T440 333Q440 287 421 248T359 185T243 161Q224 161 203 163T172 169Q165 157 161 145T157 125Q157 114 163 105T187 96H327Q376 96 413 87T471 54T492 -14Q492 -53 464 -90T376 -152T224 -177ZM229 -116Q312 -116 348 -91T384 -26Q384 2 368 8T320
15H164Q149 -3 143 -20T136 -57Q136 -85 155 -100T229 -116ZM249 220Q293 220 310 251T327 333Q327 384 309 415T246 446Q218 446 201 432T178 393T171 333Q171 282 188 251T249 220Z" />
<glyph unicode="h" horiz-adv-x="617" d="M16 0V44L98 64V641L16 652V691L178 730H215V461Q233 470 263 479T328 494T393 501Q427 501 455 491T501 458T519 396V64L601 41V0H334V41L402 64V367Q402 404 387 416T325 428Q289 428 262 424T215 414V64L283 41V0H16Z" />
<glyph unicode="i" horiz-adv-x="324" d="M27 0V44L109 64V413L27 424V463L188 501H226V64L307 44V0H27ZM162 571Q129 571 108 592T86 645Q86 677 107 698T162 719Q195 719 216 698T238 645Q238 613 217 592T162 571Z" />
<glyph unicode="j" horiz-adv-x="319" d="M89 -168Q74 -168 47 -162T-11 -141L-5 -99H40Q67 -99 83 -87T105 -55T112 -19V413L30 424V463L191 501H229V56Q229 -29 210 -78T158 -147T89 -168ZM169 571Q136 571 115 592T93 645Q93 677 114 698T169 719Q202 719 223
698T245 645Q245 613 224 592T169 571Z" />
<glyph unicode="k" horiz-adv-x="569" d="M16 0V44L98 64V641L16 652V691L177 730H216V64L276 45V0H16ZM338 0V45L381 62L224 258L366 432L294 449V492H550V449L456 430L338 288L519 64L582 45V0H338Z" />
<glyph unicode="l" horiz-adv-x="313" d="M16 0V44L98 64V641L16 652V691L177 730H215V64L297 44V0H16Z" />
<glyph unicode="m" horiz-adv-x="912" d="M27 0V39L109 64V414L27 424V464L188 501H226V461Q244 470 273 479T334 494T396 501Q427 501 456 492T503 457Q524 466 555 476T621 493T688 501Q723 501 751 491T797 458T814 396V64L897 39V0H632V39L697 64V367Q697
403 682 415T620 428Q589 428 563 424T519 414Q519 409 519 404T520 392V64L585 39V0H338V39L403 64V367Q403 404 388 416T323 428Q295 428 270 424T226 414V64L291 39V0H27Z" />
<glyph unicode="n" horiz-adv-x="628" d="M27 0V39L109 64V414L27 424V464L188 501H226V461Q241 468 271 477T336 494T403 501Q437 501 465 491T512 458T530 396V64L613 39V0H345V39L413 64V367Q413 405 397 416T333 428Q301 428 275 424T226 414V64L294 39V0H27Z" />
<glyph unicode="o" horiz-adv-x="545" d="M271 -10Q186 -10 133 25T55 117T31 244Q31 316 55 374T132 466T272 501Q360 501 413 467T490 374T515 244Q515 175 491 118T413 25T271 -10ZM275 51Q322 51 346 76T379 146T388 246Q388 302 378 345T343 415T269 441Q224
441 200 415T167 346T157 246Q157 191 167 147T202 77T275 51Z" />
<glyph unicode="p" horiz-adv-x="575" d="M17 -168V-125L99 -103V416L9 424V464Q47 474 95 482T195 495T292 501Q365 501 413 484T491 433T532 352T545 244Q545 172 520 117T444 31T321 0Q300 0 279 4T241 14L254 61Q260 60 270 59T288 57Q331 57 357 72T396 113T414
173T418 248Q418 281 414 315T398 377T361 423T294 441Q275 441 255 438T216 429V-100L321 -123V-168H17Z" />
<glyph unicode="q" horiz-adv-x="558" d="M266 -168V-125L361 -101V48Q338 31 316 18T266 -3T200 -10Q145 -10 107 24T50 115T31 244Q31 316 53 374T123 466T245 501Q282 501 318 492T389 463L436 495H475V-103L553 -125V-168H266ZM257 63Q287 63 313 73T358 102V409Q334
426 312 433T266 441Q231 441 207 417T170 352T157 259Q157 184 170 141T205 81T257 63Z" />
<glyph unicode="r" horiz-adv-x="418" d="M27 0V42L109 64V412L27 424V463L183 501H225V455Q259 477 300 490T376 504Q383 504 391 504T404 503L386 336H327L306 424Q285 424 264 420T226 407V64L341 43V0H27Z" />
<glyph unicode="s" horiz-adv-x="440" d="M202 -10Q167 -10 122 -4T42 15L54 146H103L124 63Q138 59 156 55T201 51Q249 51 275 68T302 122Q302 145 288 158T237 183L144 215Q95 233 70 264T45 349Q45 418 91 459T233 501Q269 501 308 494T382 471L368 352H321L300
425Q287 431 270 435T231 440Q190 440 167 425T143 380Q143 355 155 340T198 315L298 282Q336 270 358 253T391 209T402 145Q402 75 351 33T202 -10Z" />
<glyph unicode="t" horiz-adv-x="350" d="M175 -9Q139 -9 121 2T96 32T89 70V427H17V470L99 503L152 603H205V492H336V422L205 427V76L322 54V12Q301 6 273 2T219 -6T175 -9Z" />
<glyph unicode="u" horiz-adv-x="612" d="M220 -10Q173 -10 146 6T108 50T97 106V413L15 424V463L177 501H214V133Q214 100 228 83T283 65Q305 65 335 75T389 97V413L307 424V463L468 501H506V74L589 50V12Q555 3 531 -1T481 -5Q452 -5 425 9T393 50Q372 36 343
22T283 -1T220 -10Z" />
<glyph unicode="v" horiz-adv-x="500" d="M210 -14L43 431L-11 448L-12 492H224V446L168 431L268 136L369 429L298 446V492H512V448L448 429L287 -5L210 -14Z" />
<glyph unicode="w" horiz-adv-x="730" d="M195 -14L41 431L-12 448V492H218V446L163 431L253 136L348 444L421 456L519 136L601 429L529 446V492H742V448L679 429L541 -5L461 -14L365 278L274 -5L195 -14Z" />
<glyph unicode="x" horiz-adv-x="501" d="M-9 0V46L65 65L185 241L51 432L1 447V492H214V445L174 437L258 319L332 433L282 445V492H485V444L429 434L305 252L437 65L510 49V0H269V48L314 59L232 175L157 60L209 48V0H-9Z" />
<glyph unicode="y" horiz-adv-x="491" d="M113 -168Q92 -168 65 -162T9 -141L16 -100H73Q109 -100 134 -84T178 -40T211 24L41 431L-12 455V492H216V455L166 431L270 156L361 429L294 446V492H503V448L439 429L297 34Q263 -60 222 -114T113 -168Z" />
<glyph unicode="z" horiz-adv-x="473" d="M53 0L33 42L297 426H125L103 341H60L43 492H423L444 449L179 64H361L396 152H441L430 0H53Z" />
<glyph unicode="{" horiz-adv-x="315" d="M280 -193L104 -158L125 218L53 252V267L125 303L104 677L280 714L291 676L200 639L225 291L139 260L225 229L200 -120L291 -157L280 -193Z" />
<glyph unicode="|" horiz-adv-x="368" d="M134 -139V697H234V-139H134Z" />
<glyph unicode="}" horiz-adv-x="315" d="M35 -193L24 -157L115 -120L90 229L176 260L90 291L115 639L24 676L35 714L211 677L190 303L262 267V252L190 218L211 -158L35 -193Z" />
<glyph unicode="~" horiz-adv-x="514" d="M338 207Q308 207 280 220T223 247T163 261Q144 261 128 250T92 210L50 234Q75 286 105 308T167 331Q198 331 227 318T286 292T342 279Q369 279 385 290T420 332L465 307Q410 207 338 207Z" />
<glyph unicode="&#xa0;" horiz-adv-x="181" />
<glyph unicode="&#xa1;" horiz-adv-x="227" d="M48 -121L78 306H150L180 -121H48ZM113 375Q86 375 68 393T50 439Q50 466 68 483T113 501Q140 501 159 484T178 439Q178 412 159 394T113 375Z" />
<glyph unicode="&#xa2;" horiz-adv-x="526" d="M250 -87V35Q182 46 139 82T76 176T56 307Q56 388 82 446T156 537T267 577V698H326V577Q363 574 400 566T465 545L455 413H396L374 507Q360 513 340 516T303 520Q256 520 229 493T190 419T179 310Q179 240 190 192T230
119T309 93Q349 93 387 100T460 121L468 84Q436 63 396 49T311 32V-87H250Z" />
<glyph unicode="&#xa3;" horiz-adv-x="526" d="M48 0L35 45Q35 45 49 52T82 75T115 114T129 168V263H29L38 317H129Q129 420 145 487T200 587T309 621Q353 621 392 613T464 594L454 461H405L384 552Q370 557 356 559T328 561Q287 561 268 535T244 463T239 359V317H428L419
263H238V169Q238 144 226 123T194 86T154 59L420 70L470 122L496 106L465 0H48Z" />
<glyph unicode="&#xa4;" horiz-adv-x="541" d="M99 29L52 79L105 131Q88 156 78 186T68 249Q68 281 78 311T105 366L52 419L102 468L154 414Q179 432 208 442T271 452Q336 452 388 414L441 467L489 419L436 366Q453 341 463 311T474 249Q474 181 436 131L489 80L442
30L388 83Q339 47 271 47Q206 47 154 83L99 29ZM271 123Q306 123 335 140T381 186T398 249Q398 284 381 313T335 359T271 376Q237 376 208 359T163 313T146 249Q146 215 162 186T208 140T271 123Z" />
<glyph unicode="&#xa5;" horiz-adv-x="526" d="M116 0V42L206 67V220H45V271H196L165 334H45V385H141L62 546L-4 571V613H252V571L190 546L287 328L385 546L320 571V613H529V571L456 546L381 385H478V334H357L328 271H478V220H318V67L408 42V0H116Z" />
<glyph unicode="&#xa6;" horiz-adv-x="389" d="M134 38V362H234V38H134ZM134 197V520H234V197H134Z" />
<glyph unicode="&#xa7;" horiz-adv-x="375" d="M174 -8Q132 -8 92 -2T30 12L43 142H88L109 57Q120 54 133 51T164 47Q185 47 203 52T233 71T245 107Q245 126 224 150T172 201T110 258T58 318T37 378Q37 394 39 406T49 430Q115 360 163 313T243 235T294 182T321
144T330 106Q330 70 311 45T256 6T174 -8ZM329 211Q264 280 217 326T137 404T85 457T58 498T50 540Q50 576 70 601T125 639T204 653Q249 653 286 646T342 631L328 503H281L261 589Q253 592 240 594T211 596Q191 596 174 593T145 578T133 543Q133 524 154 500T206
447T268 389T320 328T341 269Q341 245 338 232T329 211Z" />
<glyph unicode="&#xa8;" horiz-adv-x="357" d="M69 577Q39 577 20 596T0 645Q0 674 19 692T69 711Q100 711 119 693T139 645Q139 616 120 597T69 577ZM288 577Q258 577 239 596T219 645Q219 674 238 692T288 711Q318 711 337 693T357 645Q357 616 338 597T288 577Z" />
<glyph unicode="&#xa9;" horiz-adv-x="495" d="M248 210Q181 210 126 243T38 331T5 453Q5 521 38 576T126 664T248 697Q315 697 370 664T458 576T491 453Q491 387 458 332T370 243T248 210ZM251 294Q197 294 164 314T117 371T102 453Q102 498 117 534T164 592T251
613Q275 613 299 609T346 598L338 526H308L299 574Q287 577 278 578T259 580Q225 580 207 563T182 516T175 453Q175 422 182 393T207 346T257 327Q268 327 277 328T299 333L312 376H342L346 314Q324 304 302 299T251 294ZM248 242Q307 242 354 271T429 348T457
453Q457 511 429 559T354 635T248 664Q191 664 144 636T69 559T40 453Q40 396 68 348T144 271T248 242Z" />
<glyph unicode="&#xaa;" horiz-adv-x="408" d="M113 270Q89 270 71 283T42 318T32 363Q32 383 39 405T67 446T129 472L230 489V541Q230 570 219 584T181 599Q165 599 150 597T123 591L105 524H65L52 627Q86 638 127 646T209 654Q246 654 273 647T316 619T332 562V340L390
319V288Q364 281 345 278T307 275Q281 275 259 286T233 317Q207 297 180 284T113 270ZM172 334Q186 334 202 340T230 354V447L183 438Q152 433 141 416T130 378Q130 353 143 344T172 334Z" />
<glyph unicode="&#xab;" horiz-adv-x="410" d="M326 64L187 242L326 421L372 391L294 242L372 95L326 64ZM159 64L20 242L159 421L206 391L127 242L206 95L159 64Z" />
<glyph unicode="&#xac;" horiz-adv-x="536" d="M404 123V269H65V339H470V123H404Z" />
<glyph unicode="&#xad;" horiz-adv-x="282" d="M9 206V262H274V206H9Z" />
<glyph unicode="&#xae;" horiz-adv-x="495" d="M248 210Q178 210 123 241T37 328T5 453Q5 524 36 579T123 665T248 697Q319 697 373 666T459 579T491 453Q491 383 460 328T374 242T248 210ZM248 242Q309 242 356 269T430 344T457 453Q457 514 430 561T356 636T248
664Q188 664 141 637T67 562T40 453Q40 392 67 345T141 270T248 242ZM121 306V327L155 335V582L121 590V612H250Q290 612 312 601T345 572T355 537Q355 521 349 505T330 474T291 453Q305 447 312 435T333 394L364 335L392 327V306H303Q283 356 272 384T253 424T240
438T224 441H218V335L253 327V306H121ZM218 467H238Q263 467 275 485T287 531Q287 555 274 570T234 585Q231 585 227 585T218 583V467Z" />
<glyph unicode="&#xaf;" horiz-adv-x="233" d="M0 607V677H233V607H0Z" />
<glyph unicode="&#xb0;" horiz-adv-x="442" d="M221 401Q178 401 142 422T85 478T63 558Q63 602 84 638T142 695T221 717Q265 717 300 696T357 638T379 558Q379 514 358 479T301 422T221 401ZM221 446Q267 446 292 478T318 559Q318 605 293 638T221 671Q175 671
150 638T124 559Q124 511 149 479T221 446Z" />
<glyph unicode="&#xb1;" horiz-adv-x="510" d="M219 102V269H53V339H219V505H289V339H457V269H289V102H219ZM53 10V80H457V10H53Z" />
<glyph unicode="&#xb2;" horiz-adv-x="405" d="M51 277L37 319L182 468Q211 497 231 530T252 598Q252 628 237 645T190 663Q165 663 137 656T74 632L53 679Q79 695 119 706T199 718Q243 718 276 707T329 672T349 605Q349 576 334 546T294 487T244 433L145 335H286L311
389L363 383L354 277H51Z" />
<glyph unicode="&#xb3;" horiz-adv-x="405" d="M184 267Q148 267 112 275T45 295L56 343Q96 329 120 324T162 319Q201 319 226 339T251 400Q251 435 232 451T185 472T128 477L125 519Q184 525 208 552T232 612Q232 636 218 649T177 663Q157 663 135 655T77 629L58
675Q86 692 124 704T202 716Q255 716 292 693T330 620Q330 584 309 555T255 508Q301 497 325 468T350 400Q350 334 308 301T184 267Z" />
<glyph unicode="&#xb4;" horiz-adv-x="246" d="M23 558L0 587L155 722L246 686V665L23 558Z" />
<glyph unicode="&#xb5;" horiz-adv-x="588" d="M88 -207V393L11 402V438L167 472H202V128Q202 96 213 79T260 62Q288 62 313 71T360 93V393L292 402V438L437 472H475V71L552 47V11Q520 3 495 0T446 -4Q419 -4 394 9T363 47Q339 24 307 7T239 -10Q221 -10 202 -5T169
11L193 -207H88Z" />
<glyph unicode="&#xb6;" horiz-adv-x="539" d="M191 0V41L294 65V625H491V585L405 561V64L491 40V0H191ZM226 226Q162 226 117 253T49 326T26 427Q26 483 49 528T117 600T226 627Q234 627 239 627T251 625V228Q245 226 240 226T226 226Z" />
<glyph unicode="&#xb7;" horiz-adv-x="241" d="M121 184Q90 184 71 204T52 253Q52 282 71 301T121 321Q150 321 169 302T189 253Q189 224 170 204T121 184Z" />
<glyph unicode="&#xb8;" horiz-adv-x="255" d="M86 -220Q72 -220 59 -218T33 -210L41 -175Q49 -179 56 -180T71 -182Q102 -182 119 -166T136 -129Q136 -113 123 -100T74 -86L68 -71L96 6H136L120 -46Q172 -46 197 -67T222 -117Q222 -145 203 -168T153 -206T86 -220Z" />
<glyph unicode="&#xb9;" horiz-adv-x="405" d="M163 277V642H49V678L258 710V277H163Z" />
<glyph unicode="&#xba;" horiz-adv-x="429" d="M216 270Q149 270 109 296T50 366T31 461Q31 515 49 558T108 628T216 654Q283 654 323 628T381 559T399 461Q399 410 381 367T322 297T216 270ZM217 322Q249 322 265 340T286 391T292 464Q292 504 286 536T263 586T213
605Q182 605 166 587T145 536T139 464Q139 423 145 391T168 341T217 322Z" />
<glyph unicode="&#xbb;" horiz-adv-x="411" d="M85 64L39 95L118 242L39 391L85 421L225 242L85 64ZM252 64L207 95L284 242L207 391L252 421L390 242L252 64Z" />
<glyph unicode="&#xbc;" horiz-adv-x="910" d="M273 -46L503 635H577L347 -46H273ZM163 172V536H48V573L257 605V172H163ZM575 141H701V313L575 141ZM701 0V85H499L486 123L718 439L792 431V141H849V85H792V0H701Z" />
<glyph unicode="&#xbd;" horiz-adv-x="910" d="M248 -46L478 635H552L322 -46H248ZM154 172V536H39V573L248 604V172H154ZM514 0L500 42L646 191Q674 220 694 253T714 322Q714 352 700 368T653 385Q629 385 600 378T537 355L516 402Q542 418 582 429T663 441Q706
441 740 430T793 393T812 323Q812 297 797 268T757 210T708 156L609 58H750L775 112L826 106L818 0H514Z" />
<glyph unicode="&#xbe;" horiz-adv-x="947" d="M322 -46L552 635H627L397 -46H322ZM180 163Q145 163 109 170T42 190L53 238Q96 224 120 219T158 214Q198 214 222 234T247 295Q247 330 229 346T182 367T125 372L122 414Q181 421 204 448T228 507Q228 531 215 545T173
559Q165 559 150 555T116 544T74 524L55 570Q83 587 121 599T198 611Q252 611 289 588T327 515Q327 479 306 450T251 404Q298 392 322 363T347 295Q347 229 305 196T180 163ZM612 141H739V313L612 141ZM739 0V85H536L523 123L755 439L829 431V141H887V85H829V0H739Z"
/>
<glyph unicode="&#xbf;" horiz-adv-x="383" d="M197 -137Q140 -137 100 -118T39 -67T17 3Q17 31 24 59T52 116T110 171T206 226L216 313H268L287 193Q256 178 228 160T179 119T146 68T133 5Q133 -36 158 -54T222 -73Q230 -73 241 -72T264 -67L284 27H333L350 -96Q333
-106 307 -115T252 -131T197 -137ZM241 375Q215 375 197 393T178 439Q178 466 196 483T241 501Q269 501 287 484T305 439Q305 412 287 394T241 375Z" />
<glyph unicode="&#xc0;" horiz-adv-x="594" d="M-5 0V40L66 63L254 613L326 626L528 63L599 41V0H342V41L406 60L374 153H169L140 62L209 41V0H-5ZM187 204H356L268 447L187 204ZM372 640L146 746L149 768L239 800L392 669L372 640Z" />
<glyph unicode="&#xc1;" horiz-adv-x="594" d="M-5 0V40L66 63L254 613L326 626L528 63L599 41V0H342V41L406 60L374 153H169L140 62L209 41V0H-5ZM187 204H356L268 447L187 204ZM213 640L190 669L345 800L436 768V746L213 640Z" />
<glyph unicode="&#xc2;" horiz-adv-x="594" d="M-5 0V40L66 63L254 613L326 626L528 63L599 41V0H342V41L406 60L374 153H169L140 62L209 41V0H-5ZM187 204H356L268 447L187 204ZM168 644L145 666L252 800H328L434 666L413 644L289 723L168 644Z" />
<glyph unicode="&#xc3;" horiz-adv-x="594" d="M-5 0V40L66 63L254 613L326 626L528 63L599 41V0H342V41L406 60L374 153H169L140 62L209 41V0H-5ZM187 204H356L268 447L187 204ZM372 664Q351 664 319 673T257 692T208 702Q199 702 191 697T177 684T166 669L125
686Q140 728 161 757T208 786Q230 786 261 777T322 758T372 748Q381 748 389 753T404 766T414 781L454 764Q436 723 417 694T372 664Z" />
<glyph unicode="&#xc4;" horiz-adv-x="594" d="M-5 0V40L66 63L254 613L326 626L528 63L599 41V0H342V41L406 60L374 153H169L140 62L209 41V0H-5ZM187 204H356L268 447L187 204ZM400 654Q372 654 351 673T330 720Q330 749 351 768T400 788Q427 788 447 769T467
720Q467 692 447 673T400 654ZM181 654Q153 654 132 673T110 720Q110 749 131 768T181 788Q208 788 228 769T249 720Q249 692 229 673T181 654Z" />
<glyph unicode="&#xc5;" horiz-adv-x="594" d="M-5 0V40L66 63L254 613L326 626L528 63L599 41V0H342V41L406 60L374 153H169L140 62L209 41V0H-5ZM187 204H356L268 447L187 204ZM289 636Q235 636 208 663T180 730Q180 770 207 798T289 827Q344 827 371 799T398
730Q398 690 371 663T289 636ZM289 678Q318 678 325 693T333 730Q333 751 326 767T289 783Q260 783 253 767T246 730Q246 709 253 694T289 678Z" />
<glyph unicode="&#xc6;" horiz-adv-x="716" d="M-38 0V40L33 63L293 555L228 572V613H643V472H593L572 550H430L446 314H529L547 380H595V192H547L527 261H450L464 65H607L633 157H683V0H263V41L350 63L336 257H207L108 63L176 41V0H-38ZM234 310H333L321 478L234 310Z" />
<glyph unicode="&#xc7;" horiz-adv-x="549" d="M328 -10Q249 -10 194 15T103 84T51 187T34 311Q34 398 63 470T157 585T328 628Q392 628 434 619T512 599L502 455H457L432 553Q412 559 389 562T346 565Q288 565 251 544T194 487T166 405T158 311Q158 265 166 220T195
137T252 77T342 55Q362 55 385 58T432 68L457 154H504L512 22Q471 7 429 -1T328 -10ZM287 -220Q273 -220 260 -218T234 -210L242 -175Q250 -179 257 -180T272 -182Q303 -182 320 -166T337 -129Q337 -113 324 -100T275 -86L269 -71L297 6H337L321 -46Q373 -46 398
-67T423 -117Q423 -145 404 -168T354 -206T287 -220Z" />
<glyph unicode="&#xc8;" horiz-adv-x="544" d="M37 0V41L124 63V550L36 572V613H489V472H439L417 550H242V328H361L379 394H427V206H379L359 275H242V65H435L461 157H511V0H37ZM379 640L153 746L156 768L246 800L399 669L379 640Z" />
<glyph unicode="&#xc9;" horiz-adv-x="544" d="M37 0V41L124 63V550L36 572V613H489V472H439L417 550H242V328H361L379 394H427V206H379L359 275H242V65H435L461 157H511V0H37ZM219 640L196 669L351 800L442 768V746L219 640Z" />
<glyph unicode="&#xca;" horiz-adv-x="544" d="M37 0V41L124 63V550L36 572V613H489V472H439L417 550H242V328H361L379 394H427V206H379L359 275H242V65H435L461 157H511V0H37ZM174 644L151 666L258 800H334L440 666L419 644L295 723L174 644Z" />
<glyph unicode="&#xcb;" horiz-adv-x="544" d="M37 0V41L124 63V550L36 572V613H489V472H439L417 550H242V328H361L379 394H427V206H379L359 275H242V65H435L461 157H511V0H37ZM407 654Q379 654 358 673T337 720Q337 749 358 768T407 788Q434 788 454 769T474
720Q474 692 454 673T407 654ZM188 654Q160 654 139 673T117 720Q117 749 138 768T188 788Q215 788 235 769T256 720Q256 692 236 673T188 654Z" />
<glyph unicode="&#xcc;" horiz-adv-x="363" d="M37 0V41L123 63V550L36 572V613H327V572L240 550V63L327 41V0H37ZM264 640L38 746L41 768L131 800L284 669L264 640Z" />
<glyph unicode="&#xcd;" horiz-adv-x="363" d="M37 0V41L123 63V550L36 572V613H327V572L240 550V63L327 41V0H37ZM105 640L82 669L237 800L328 768V746L105 640Z" />
<glyph unicode="&#xce;" horiz-adv-x="363" d="M37 0V41L123 63V550L36 572V613H327V572L240 550V63L327 41V0H37ZM60 644L37 666L144 800H220L326 666L305 644L181 723L60 644Z" />
<glyph unicode="&#xcf;" horiz-adv-x="363" d="M37 0V41L123 63V550L36 572V613H327V572L240 550V63L327 41V0H37ZM293 654Q265 654 244 673T223 720Q223 749 244 768T293 788Q320 788 340 769T360 720Q360 692 340 673T293 654ZM74 654Q46 654 25 673T3 720Q3
749 24 768T74 788Q101 788 121 769T142 720Q142 692 122 673T74 654Z" />
<glyph unicode="&#xd0;" horiz-adv-x="651" d="M39 0V41L125 63V275H40V328H125V550L38 572V613H308Q419 613 487 576T586 473T618 319Q618 232 589 160T495 44T326 0H39ZM333 51Q384 51 415 74T464 137T487 224T494 319Q494 389 472 442T407 526T304 556Q283
556 268 554T242 550V328H354V275H242V65Q259 60 284 56T333 51Z" />
<glyph unicode="&#xd1;" horiz-adv-x="710" d="M513 -10L185 467V63L270 41V0H37V41L119 63V550L36 572V613H222L541 152V550L456 572V613H692V572L608 550V0L513 -10ZM452 664Q431 664 399 673T337 692T288 702Q279 702 271 697T257 684T246 669L205 686Q220
728 241 757T288 786Q310 786 341 777T402 758T452 748Q461 748 469 753T484 766T494 781L534 764Q516 723 497 694T452 664Z" />
<glyph unicode="&#xd2;" horiz-adv-x="661" d="M332 -9Q227 -9 161 34T65 150T34 310Q34 397 64 469T159 584T332 627Q439 627 504 584T598 469T627 310Q627 223 598 151T503 35T332 -9ZM336 53Q390 53 423 78T473 142T495 225T501 310Q501 349 495 393T470 477T417
540T326 565Q273 565 240 541T190 477T167 394T160 310Q160 269 167 224T192 140T245 77T336 53ZM413 640L187 746L190 768L280 800L433 669L413 640Z" />
<glyph unicode="&#xd3;" horiz-adv-x="661" d="M332 -9Q227 -9 161 34T65 150T34 310Q34 397 64 469T159 584T332 627Q439 627 504 584T598 469T627 310Q627 223 598 151T503 35T332 -9ZM336 53Q390 53 423 78T473 142T495 225T501 310Q501 349 495 393T470 477T417
540T326 565Q273 565 240 541T190 477T167 394T160 310Q160 269 167 224T192 140T245 77T336 53ZM254 640L231 669L386 800L477 768V746L254 640Z" />
<glyph unicode="&#xd4;" horiz-adv-x="661" d="M332 -9Q227 -9 161 34T65 150T34 310Q34 397 64 469T159 584T332 627Q439 627 504 584T598 469T627 310Q627 223 598 151T503 35T332 -9ZM336 53Q390 53 423 78T473 142T495 225T501 310Q501 349 495 393T470 477T417
540T326 565Q273 565 240 541T190 477T167 394T160 310Q160 269 167 224T192 140T245 77T336 53ZM209 644L186 666L293 800H369L475 666L454 644L330 723L209 644Z" />
<glyph unicode="&#xd5;" horiz-adv-x="661" d="M332 -9Q227 -9 161 34T65 150T34 310Q34 397 64 469T159 584T332 627Q439 627 504 584T598 469T627 310Q627 223 598 151T503 35T332 -9ZM336 53Q390 53 423 78T473 142T495 225T501 310Q501 349 495 393T470 477T417
540T326 565Q273 565 240 541T190 477T167 394T160 310Q160 269 167 224T192 140T245 77T336 53ZM414 664Q393 664 361 673T299 692T250 702Q241 702 233 697T219 684T208 669L167 686Q182 728 203 757T250 786Q272 786 303 777T364 758T414 748Q423 748 431 753T446
766T456 781L496 764Q478 723 459 694T414 664Z" />
<glyph unicode="&#xd6;" horiz-adv-x="661" d="M332 -9Q227 -9 161 34T65 150T34 310Q34 397 64 469T159 584T332 627Q439 627 504 584T598 469T627 310Q627 223 598 151T503 35T332 -9ZM336 53Q390 53 423 78T473 142T495 225T501 310Q501 349 495 393T470 477T417
540T326 565Q273 565 240 541T190 477T167 394T160 310Q160 269 167 224T192 140T245 77T336 53ZM442 654Q414 654 393 673T372 720Q372 749 393 768T442 788Q469 788 489 769T509 720Q509 692 489 673T442 654ZM223 654Q195 654 174 673T152 720Q152 749 173 768T223
788Q250 788 270 769T291 720Q291 692 271 673T223 654Z" />
<glyph unicode="&#xd7;" horiz-adv-x="510" d="M122 123L73 174L205 305L73 438L124 488L255 356L386 487L437 437L305 305L437 175L388 124L255 256L122 123Z" />
<glyph unicode="&#xd8;" horiz-adv-x="661" d="M141 -95L183 23Q132 49 99 92T50 191T34 310Q34 397 64 469T159 584T332 627Q351 627 369 626T402 622L434 708H510L471 601Q526 576 560 533T611 432T627 310Q627 223 598 151T503 35T332 -9Q309 -9 289 -7T249
-1L215 -95H141ZM215 106L380 562Q368 566 355 567T326 569Q273 569 240 544T190 480T167 396T160 310Q160 276 164 239T181 167T215 106ZM336 49Q390 49 423 74T473 138T495 223T501 310Q501 345 496 383T478 457T440 519L272 60Q286 54 301 52T336 49Z" />
<glyph unicode="&#xd9;" horiz-adv-x="658" d="M334 -9Q257 -9 210 12T137 72T103 160T94 265V550L7 572V613H298V572L211 550V265Q211 207 220 160T259 84T348 55Q402 55 435 79T483 146T498 242V550L412 572V613H650V572L566 550V236Q566 212 561 180T543 115T504
53T437 8T334 -9ZM430 640L204 746L207 768L297 800L450 669L430 640Z" />
<glyph unicode="&#xda;" horiz-adv-x="658" d="M334 -9Q257 -9 210 12T137 72T103 160T94 265V550L7 572V613H298V572L211 550V265Q211 207 220 160T259 84T348 55Q402 55 435 79T483 146T498 242V550L412 572V613H650V572L566 550V236Q566 212 561 180T543 115T504
53T437 8T334 -9ZM271 640L248 669L403 800L494 768V746L271 640Z" />
<glyph unicode="&#xdb;" horiz-adv-x="658" d="M334 -9Q257 -9 210 12T137 72T103 160T94 265V550L7 572V613H298V572L211 550V265Q211 207 220 160T259 84T348 55Q402 55 435 79T483 146T498 242V550L412 572V613H650V572L566 550V236Q566 212 561 180T543 115T504
53T437 8T334 -9ZM226 644L203 666L310 800H386L492 666L471 644L347 723L226 644Z" />
<glyph unicode="&#xdc;" horiz-adv-x="658" d="M334 -9Q257 -9 210 12T137 72T103 160T94 265V550L7 572V613H298V572L211 550V265Q211 207 220 160T259 84T348 55Q402 55 435 79T483 146T498 242V550L412 572V613H650V572L566 550V236Q566 212 561 180T543 115T504
53T437 8T334 -9ZM459 654Q431 654 410 673T389 720Q389 749 410 768T459 788Q486 788 506 769T526 720Q526 692 506 673T459 654ZM240 654Q212 654 191 673T169 720Q169 749 190 768T240 788Q267 788 287 769T308 720Q308 692 288 673T240 654Z" />
<glyph unicode="&#xdd;" horiz-adv-x="572" d="M138 0V41L230 63V245L74 549L4 572V613H267V571L202 550L314 328L424 551L353 571V613H569V573L497 549L346 245V63L439 41V0H138ZM230 640L207 669L362 800L453 768V746L230 640Z" />
<glyph unicode="&#xde;" horiz-adv-x="514" d="M37 0V41L123 63V550L36 572V613H327V572L240 550V480H287Q351 480 400 462T476 406T504 314Q504 266 487 231T439 174T372 142T296 131Q292 131 281 131T259 133T240 136V63L327 41V0H37ZM274 177Q310 177 336 192T376
237T390 307Q390 346 377 372T338 411T275 425Q267 425 258 424T240 422V181Q247 179 255 178T274 177Z" />
<glyph unicode="&#xdf;" horiz-adv-x="626" d="M435 -10Q406 -10 384 -7T342 2T300 15L312 140H357L376 56Q388 51 403 48T438 45Q474 45 488 62T502 103Q502 132 482 157T434 204T376 249T326 300T306 359Q306 386 316 403T341 433T370 461T395 497T405 554Q405
564 402 578T391 607T366 630T322 640Q284 640 264 625T236 582T228 520V64L255 45V0H30V42L112 64V427H31V469L112 501Q112 550 127 588T170 652T238 692T327 706Q386 706 428 685T493 631T516 560Q516 527 501 505T465 467T430 431T414 385Q414 366 433 347T482
307T541 259T590 201T610 128Q610 63 565 27T435 -10Z" />
<glyph unicode="&#xe0;" horiz-adv-x="523" d="M160 -10Q123 -10 98 6T59 50T45 113Q45 139 55 168T93 221T173 256L314 283V358Q314 397 299 415T242 433Q222 433 202 430T164 420L142 336H89L72 464Q117 481 167 491T272 501Q321 501 356 491T411 455T431 382V74L508
50V12Q475 3 452 -1T404 -5Q375 -5 349 8T316 49Q279 22 242 6T160 -10ZM221 64Q245 64 271 74T314 95V230L238 214Q195 205 179 182T162 127Q162 93 178 79T221 64ZM327 558L101 665L104 686L194 722L347 587L327 558Z" />
<glyph unicode="&#xe1;" horiz-adv-x="523" d="M160 -10Q123 -10 98 6T59 50T45 113Q45 139 55 168T93 221T173 256L314 283V358Q314 397 299 415T242 433Q222 433 202 430T164 420L142 336H89L72 464Q117 481 167 491T272 501Q321 501 356 491T411 455T431 382V74L508
50V12Q475 3 452 -1T404 -5Q375 -5 349 8T316 49Q279 22 242 6T160 -10ZM221 64Q245 64 271 74T314 95V230L238 214Q195 205 179 182T162 127Q162 93 178 79T221 64ZM196 558L173 587L328 722L419 686V665L196 558Z" />
<glyph unicode="&#xe2;" horiz-adv-x="523" d="M160 -10Q123 -10 98 6T59 50T45 113Q45 139 55 168T93 221T173 256L314 283V358Q314 397 299 415T242 433Q222 433 202 430T164 420L142 336H89L72 464Q117 481 167 491T272 501Q321 501 356 491T411 455T431 382V74L508
50V12Q475 3 452 -1T404 -5Q375 -5 349 8T316 49Q279 22 242 6T160 -10ZM221 64Q245 64 271 74T314 95V230L238 214Q195 205 179 182T162 127Q162 93 178 79T221 64ZM151 557L120 582L226 723H302L408 582L379 557L264 643L151 557Z" />
<glyph unicode="&#xe3;" horiz-adv-x="523" d="M160 -10Q123 -10 98 6T59 50T45 113Q45 139 55 168T93 221T173 256L314 283V358Q314 397 299 415T242 433Q222 433 202 430T164 420L142 336H89L72 464Q117 481 167 491T272 501Q321 501 356 491T411 455T431 382V74L508
50V12Q475 3 452 -1T404 -5Q375 -5 349 8T316 49Q279 22 242 6T160 -10ZM221 64Q245 64 271 74T314 95V230L238 214Q195 205 179 182T162 127Q162 93 178 79T221 64ZM347 583Q326 583 294 592T232 611T183 621Q174 621 166 616T152 603T141 588L100 605Q117 646
137 675T183 705Q205 705 236 696T297 677T347 667Q356 667 364 672T379 685T389 699L429 683Q411 642 392 613T347 583Z" />
<glyph unicode="&#xe4;" horiz-adv-x="523" d="M160 -10Q123 -10 98 6T59 50T45 113Q45 139 55 168T93 221T173 256L314 283V358Q314 397 299 415T242 433Q222 433 202 430T164 420L142 336H89L72 464Q117 481 167 491T272 501Q321 501 356 491T411 455T431 382V74L508
50V12Q475 3 452 -1T404 -5Q375 -5 349 8T316 49Q279 22 242 6T160 -10ZM221 64Q245 64 271 74T314 95V230L238 214Q195 205 179 182T162 127Q162 93 178 79T221 64ZM154 577Q124 577 105 596T85 645Q85 674 104 692T154 711Q185 711 204 693T224 645Q224 616 205
597T154 577ZM373 577Q343 577 324 596T304 645Q304 674 323 692T373 711Q403 711 422 693T442 645Q442 616 423 597T373 577Z" />
<glyph unicode="&#xe5;" horiz-adv-x="523" d="M160 -10Q123 -10 98 6T59 50T45 113Q45 139 55 168T93 221T173 256L314 283V358Q314 397 299 415T242 433Q222 433 202 430T164 420L142 336H89L72 464Q117 481 167 491T272 501Q321 501 356 491T411 455T431 382V74L508
50V12Q475 3 452 -1T404 -5Q375 -5 349 8T316 49Q279 22 242 6T160 -10ZM221 64Q245 64 271 74T314 95V230L238 214Q195 205 179 182T162 127Q162 93 178 79T221 64ZM263 550Q208 550 181 580T153 653Q153 697 180 728T263 759Q319 759 346 728T374 653Q374 610
347 580T263 550ZM263 597Q291 597 298 613T306 653Q306 678 299 695T263 712Q236 712 229 695T221 653Q221 630 228 614T263 597Z" />
<glyph unicode="&#xe6;" horiz-adv-x="736" d="M161 -10Q122 -10 96 6T58 48T45 105Q45 136 59 163T104 212T186 241L306 263V358Q306 385 300 401T278 425T236 433Q214 433 196 430T160 420L138 336H88L71 464Q116 481 164 491T266 501Q313 501 344 489T393 450Q419
475 451 488T527 501Q579 501 620 482T685 421T709 312Q709 306 709 298T707 282L421 231Q421 168 434 130T476 75T552 57Q585 57 621 64T692 80L700 41Q667 19 624 5T520 -10Q473 -10 440 -1T385 26T347 66Q321 46 293 29T233 1T161 -10ZM220 63Q243 63 265 73T306
96V210L238 198Q195 190 178 173T161 127Q161 96 176 80T220 63ZM423 282L590 316Q590 343 587 365T577 404T557 430T521 439Q485 439 465 420T435 366T423 282Z" />
<glyph unicode="&#xe7;" horiz-adv-x="445" d="M256 -10Q175 -10 125 25T53 117T31 244Q31 316 53 374T124 466T256 501Q306 501 345 494T426 470L407 336H357L335 427Q318 433 302 436T266 440Q221 440 198 415T166 346T157 246Q157 194 163 158T184 100T220
68T274 58Q305 58 342 63T421 81L428 41Q394 19 350 5T256 -10ZM218 -220Q204 -220 191 -218T165 -210L173 -175Q181 -179 188 -180T203 -182Q234 -182 251 -166T268 -129Q268 -113 255 -100T206 -86L200 -71L228 6H268L252 -46Q304 -46 329 -67T354 -117Q354 -145
335 -168T285 -206T218 -220Z" />
<glyph unicode="&#xe8;" horiz-adv-x="479" d="M265 -10Q200 -10 155 9T82 62T43 143T31 244Q31 314 47 363T94 442T166 487T255 501Q357 501 404 455T452 311Q452 304 452 293T451 271T448 250H157V223Q157 163 173 127T221 74T296 57Q326 57 364 63T439 80L446
41Q411 18 368 4T265 -10ZM159 298L331 308V330Q331 363 326 387T305 425T260 439Q223 439 202 424T171 376T159 298ZM320 558L94 665L97 686L187 722L340 587L320 558Z" />
<glyph unicode="&#xe9;" horiz-adv-x="479" d="M265 -10Q200 -10 155 9T82 62T43 143T31 244Q31 314 47 363T94 442T166 487T255 501Q357 501 404 455T452 311Q452 304 452 293T451 271T448 250H157V223Q157 163 173 127T221 74T296 57Q326 57 364 63T439 80L446
41Q411 18 368 4T265 -10ZM159 298L331 308V330Q331 363 326 387T305 425T260 439Q223 439 202 424T171 376T159 298ZM189 558L166 587L321 722L412 686V665L189 558Z" />
<glyph unicode="&#xea;" horiz-adv-x="479" d="M265 -10Q200 -10 155 9T82 62T43 143T31 244Q31 314 47 363T94 442T166 487T255 501Q357 501 404 455T452 311Q452 304 452 293T451 271T448 250H157V223Q157 163 173 127T221 74T296 57Q326 57 364 63T439 80L446
41Q411 18 368 4T265 -10ZM159 298L331 308V330Q331 363 326 387T305 425T260 439Q223 439 202 424T171 376T159 298ZM144 557L113 582L219 723H295L401 582L372 557L257 643L144 557Z" />
<glyph unicode="&#xeb;" horiz-adv-x="479" d="M265 -10Q200 -10 155 9T82 62T43 143T31 244Q31 314 47 363T94 442T166 487T255 501Q357 501 404 455T452 311Q452 304 452 293T451 271T448 250H157V223Q157 163 173 127T221 74T296 57Q326 57 364 63T439 80L446
41Q411 18 368 4T265 -10ZM159 298L331 308V330Q331 363 326 387T305 425T260 439Q223 439 202 424T171 376T159 298ZM147 577Q117 577 98 596T78 645Q78 674 97 692T147 711Q178 711 197 693T217 645Q217 616 198 597T147 577ZM366 577Q336 577 317 596T297 645Q297
674 316 692T366 711Q396 711 415 693T435 645Q435 616 416 597T366 577Z" />
<glyph unicode="&#xec;" horiz-adv-x="324" d="M27 0V44L109 64V413L27 424V463L188 501H226V64L307 44V0H27ZM481 558L255 665L258 686L348 722L501 587L481 558Z" />
<glyph unicode="&#xed;" horiz-adv-x="324" d="M27 0V44L109 64V413L27 424V463L188 501H226V64L307 44V0H27ZM94 558L71 587L226 722L317 686V665L94 558Z" />
<glyph unicode="&#xee;" horiz-adv-x="324" d="M27 0V44L109 64V413L27 424V463L188 501H226V64L307 44V0H27ZM49 557L18 582L124 723H200L306 582L277 557L162 643L49 557Z" />
<glyph unicode="&#xef;" horiz-adv-x="324" d="M27 0V44L109 64V413L27 424V463L188 501H226V64L307 44V0H27ZM308 577Q278 577 259 596T239 645Q239 674 258 692T308 711Q339 711 358 693T378 645Q378 616 359 597T308 577ZM527 577Q497 577 478 596T458 645Q458
674 477 692T527 711Q557 711 576 693T596 645Q596 616 577 597T527 577Z" />
<glyph unicode="&#xf0;" horiz-adv-x="546" d="M271 -10Q185 -10 132 24T55 116T31 244Q31 315 54 373T131 466T271 501Q298 501 322 496T367 479Q356 511 341 539T309 591L190 523L163 570L275 634Q252 663 228 685T184 723L215 765Q244 752 279 731T349 677L466
745L494 697L388 636Q419 600 442 558T482 469T506 372T515 268Q515 214 503 164T464 75T389 13T271 -10ZM275 51Q311 51 333 66T367 109T383 171T388 246Q388 287 383 322T365 384T329 426T269 441Q235 441 213 426T179 384T163 322T158 246Q158 206 163 171T180
109T216 67T275 51Z" />
<glyph unicode="&#xf1;" horiz-adv-x="628" d="M27 0V39L109 64V414L27 424V464L188 501H226V461Q241 468 271 477T336 494T403 501Q437 501 465 491T512 458T530 396V64L613 39V0H345V39L413 64V367Q413 405 397 416T333 428Q301 428 275 424T226 414V64L294
39V0H27ZM397 583Q376 583 344 592T282 611T233 621Q224 621 216 616T202 603T191 588L150 605Q167 646 187 675T233 705Q255 705 286 696T347 677T397 667Q406 667 414 672T429 685T439 699L479 683Q461 642 442 613T397 583Z" />
<glyph unicode="&#xf2;" horiz-adv-x="545" d="M271 -10Q186 -10 133 25T55 117T31 244Q31 316 55 374T132 466T272 501Q360 501 413 467T490 374T515 244Q515 175 491 118T413 25T271 -10ZM275 51Q322 51 346 76T379 146T388 246Q388 302 378 345T343 415T269
441Q224 441 200 415T167 346T157 246Q157 191 167 147T202 77T275 51ZM335 558L109 665L112 686L202 722L355 587L335 558Z" />
<glyph unicode="&#xf3;" horiz-adv-x="545" d="M271 -10Q186 -10 133 25T55 117T31 244Q31 316 55 374T132 466T272 501Q360 501 413 467T490 374T515 244Q515 175 491 118T413 25T271 -10ZM275 51Q322 51 346 76T379 146T388 246Q388 302 378 345T343 415T269
441Q224 441 200 415T167 346T157 246Q157 191 167 147T202 77T275 51ZM205 558L182 587L337 722L428 686V665L205 558Z" />
<glyph unicode="&#xf4;" horiz-adv-x="545" d="M271 -10Q186 -10 133 25T55 117T31 244Q31 316 55 374T132 466T272 501Q360 501 413 467T490 374T515 244Q515 175 491 118T413 25T271 -10ZM275 51Q322 51 346 76T379 146T388 246Q388 302 378 345T343 415T269
441Q224 441 200 415T167 346T157 246Q157 191 167 147T202 77T275 51ZM160 557L129 582L235 723H311L417 582L388 557L273 643L160 557Z" />
<glyph unicode="&#xf5;" horiz-adv-x="545" d="M271 -10Q186 -10 133 25T55 117T31 244Q31 316 55 374T132 466T272 501Q360 501 413 467T490 374T515 244Q515 175 491 118T413 25T271 -10ZM275 51Q322 51 346 76T379 146T388 246Q388 302 378 345T343 415T269
441Q224 441 200 415T167 346T157 246Q157 191 167 147T202 77T275 51ZM356 583Q335 583 303 592T241 611T192 621Q183 621 175 616T161 603T150 588L109 605Q126 646 146 675T192 705Q214 705 245 696T306 677T356 667Q365 667 373 672T388 685T398 699L438 683Q420
642 401 613T356 583Z" />
<glyph unicode="&#xf6;" horiz-adv-x="545" d="M271 -10Q186 -10 133 25T55 117T31 244Q31 316 55 374T132 466T272 501Q360 501 413 467T490 374T515 244Q515 175 491 118T413 25T271 -10ZM275 51Q322 51 346 76T379 146T388 246Q388 302 378 345T343 415T269
441Q224 441 200 415T167 346T157 246Q157 191 167 147T202 77T275 51ZM162 577Q132 577 113 596T93 645Q93 674 112 692T162 711Q193 711 212 693T232 645Q232 616 213 597T162 577ZM381 577Q351 577 332 596T312 645Q312 674 331 692T381 711Q411 711 430 693T450
645Q450 616 431 597T381 577Z" />
<glyph unicode="&#xf7;" horiz-adv-x="510" d="M53 269V339H457V269H53ZM256 97Q230 97 212 115T193 159Q193 185 211 203T256 221Q281 221 299 203T318 159Q318 133 300 115T256 97ZM256 387Q230 387 212 405T193 448Q193 474 211 492T256 510Q281 510 299 492T318
448Q318 423 300 405T256 387Z" />
<glyph unicode="&#xf8;" horiz-adv-x="545" d="M127 -93L161 11Q93 40 62 103T31 244Q31 316 55 374T132 466T271 501Q296 501 318 498L347 589H414L379 483Q452 455 483 391T515 244Q515 175 491 118T413 25T271 -10Q257 -10 244 -9T219 -6L191 -93H127ZM188
96L299 438Q285 441 269 441Q224 441 200 416T167 346T157 246Q157 200 164 161T188 96ZM275 51Q322 51 346 76T379 146T388 246Q388 295 381 335T352 401L240 56Q255 51 275 51Z" />
<glyph unicode="&#xf9;" horiz-adv-x="612" d="M220 -10Q173 -10 146 6T108 50T97 106V413L15 424V463L177 501H214V133Q214 100 228 83T283 65Q305 65 335 75T389 97V413L307 424V463L468 501H506V74L589 50V12Q555 3 531 -1T481 -5Q452 -5 425 9T393 50Q372
36 343 22T283 -1T220 -10ZM369 558L143 665L146 686L236 722L389 587L369 558Z" />
<glyph unicode="&#xfa;" horiz-adv-x="612" d="M220 -10Q173 -10 146 6T108 50T97 106V413L15 424V463L177 501H214V133Q214 100 228 83T283 65Q305 65 335 75T389 97V413L307 424V463L468 501H506V74L589 50V12Q555 3 531 -1T481 -5Q452 -5 425 9T393 50Q372
36 343 22T283 -1T220 -10ZM238 558L215 587L370 722L461 686V665L238 558Z" />
<glyph unicode="&#xfb;" horiz-adv-x="612" d="M220 -10Q173 -10 146 6T108 50T97 106V413L15 424V463L177 501H214V133Q214 100 228 83T283 65Q305 65 335 75T389 97V413L307 424V463L468 501H506V74L589 50V12Q555 3 531 -1T481 -5Q452 -5 425 9T393 50Q372
36 343 22T283 -1T220 -10ZM193 557L162 582L268 723H344L450 582L421 557L306 643L193 557Z" />
<glyph unicode="&#xfc;" horiz-adv-x="612" d="M220 -10Q173 -10 146 6T108 50T97 106V413L15 424V463L177 501H214V133Q214 100 228 83T283 65Q305 65 335 75T389 97V413L307 424V463L468 501H506V74L589 50V12Q555 3 531 -1T481 -5Q452 -5 425 9T393 50Q372
36 343 22T283 -1T220 -10ZM196 577Q166 577 147 596T127 645Q127 674 146 692T196 711Q227 711 246 693T266 645Q266 616 247 597T196 577ZM415 577Q385 577 366 596T346 645Q346 674 365 692T415 711Q445 711 464 693T484 645Q484 616 465 597T415 577Z" />
<glyph unicode="&#xfd;" horiz-adv-x="491" d="M113 -168Q92 -168 65 -162T9 -141L16 -100H73Q109 -100 134 -84T178 -40T211 24L41 431L-12 455V492H216V455L166 431L270 156L361 429L294 446V492H503V448L439 429L297 34Q263 -60 222 -114T113 -168ZM176 558L153
587L308 722L399 686V665L176 558Z" />
<glyph unicode="&#xfe;" horiz-adv-x="567" d="M10 -168V-125L92 -103V641L10 652V691L170 730H208V497Q227 500 247 500T288 501Q383 501 437 470T514 382T537 244Q537 172 512 117T436 31T312 0Q293 0 273 3T229 14L242 61Q249 60 260 59T280 57Q323 57 349
72T388 113T405 173T409 248Q409 281 406 315T390 377T352 423T284 441Q263 441 243 438T208 429V-100L313 -123V-168H10Z" />
<glyph unicode="&#xff;" horiz-adv-x="491" d="M113 -168Q92 -168 65 -162T9 -141L16 -100H73Q109 -100 134 -84T178 -40T211 24L41 431L-12 455V492H216V455L166 431L270 156L361 429L294 446V492H503V448L439 429L297 34Q263 -60 222 -114T113 -168ZM134 577Q104
577 85 596T65 645Q65 674 84 692T134 711Q165 711 184 693T204 645Q204 616 185 597T134 577ZM353 577Q323 577 304 596T284 645Q284 674 303 692T353 711Q383 711 402 693T422 645Q422 616 403 597T353 577Z" />
<glyph unicode="&#x2013;" horiz-adv-x="719" d="M0 206V271H719V206H0Z" />
<glyph unicode="&#x2014;" horiz-adv-x="833" d="M0 206V271H832V206H0Z" />
<glyph unicode="&#x2018;" horiz-adv-x="183" d="M43 430L20 453L110 675L151 667L137 451L43 430Z" />
<glyph unicode="&#x2019;" horiz-adv-x="183" d="M73 430L32 438L45 654L139 675L163 651L73 430Z" />
<glyph unicode="&#x201a;" horiz-adv-x="194" d="M75 -117L37 -110L51 99L141 120L161 96L75 -117Z" />
<glyph unicode="&#x201c;" horiz-adv-x="349" d="M210 430L185 453L275 675L317 667L303 451L210 430ZM44 430L20 453L111 675L151 667L138 451L44 430Z" />
<glyph unicode="&#x201d;" horiz-adv-x="348" d="M238 430L197 438L211 654L304 675L328 651L238 430ZM73 430L32 438L45 654L139 675L163 651L73 430Z" />
<glyph unicode="&#x201e;" horiz-adv-x="368" d="M248 -117L210 -110L224 99L313 120L334 96L248 -117ZM75 -117L37 -110L51 99L141 120L161 96L75 -117Z" />
<glyph unicode="&#x2022;" horiz-adv-x="467" d="M234 203Q193 203 160 223T107 276T87 348Q87 389 107 421T160 473T234 493Q274 493 306 474T359 422T379 348Q379 309 359 276T307 223T234 203Z" />
<glyph unicode="&#x2039;" horiz-adv-x="243" d="M159 64L20 242L159 421L206 391L127 242L206 95L159 64Z" />
<glyph unicode="&#x203a;" horiz-adv-x="243" d="M85 64L39 95L118 242L39 391L85 421L223 242L85 64Z" />
</font>
</defs>
</svg>
