<?xml version="1.0" standalone="no"?>
<!DOCTYPE svg PUBLIC "-//W3C//DTD SVG 1.1//EN" "http://www.w3.org/Graphics/SVG/1.1/DTD/svg11.dtd">
<svg xmlns="http://www.w3.org/2000/svg">
<defs >
<font id="Manuale" horiz-adv-x="501" ><font-face
    font-family="Manuale SemiBold"
    units-per-em="1000"
    panose-1="0 0 0 0 0 0 0 0 0 0"
    ascent="980"
    descent="-236"
    alphabetic="0" />
<glyph unicode=" " horiz-adv-x="166" />
<glyph unicode="!" horiz-adv-x="263" d="M80 188L132 613H264L151 188H80ZM93 -8Q67 -8 47 10T26 56Q26 84 46 103T93 123Q121 123 141 104T161 56Q161 29 141 11T93 -8Z" />
<glyph unicode="&quot;" horiz-adv-x="303" d="M80 468L90 700H194L115 468H80ZM232 468L241 700H344L264 468H232Z" />
<glyph unicode="#" horiz-adv-x="562" d="M84 -8L131 163H12L31 230H150L176 327H55L75 395H194L242 566H316L267 395H389L436 566H509L462 395H569L551 327H443L416 230H527L506 163H399L351 -8H278L326 163H204L157 -8H84ZM222 230H344L371 327H248L222 230Z" />
<glyph unicode="$" horiz-adv-x="504" d="M143 -117L167 2Q125 3 83 11T7 32L43 154H91V72Q107 68 132 63T187 57Q249 57 288 87T328 167Q328 195 311 212T258 245L164 287Q131 302 110 326T90 397Q90 459 115 505T188 580T297 614L317 716H375L355 615Q391 614
424 606T490 587L455 457H410L407 550Q395 554 371 556T330 559Q306 559 282 554T238 536T206 503T194 452Q194 423 214 406T266 373L360 330Q397 313 416 286T436 216Q436 161 413 116T342 42T223 4L200 -117H143Z" />
<glyph unicode="%" horiz-adv-x="914" d="M296 0L546 613H619L369 0H296ZM174 169Q135 169 105 183T57 229T39 315Q39 374 54 428T97 525T167 593T262 619Q319 619 356 587T394 473Q394 405 378 349T332 253T262 191T174 169ZM190 249Q214 249 238 259T283 292T316
353T328 444Q328 480 317 500T287 530T243 539Q216 539 192 527T148 491T118 430T107 342Q107 305 119 285T151 257T190 249ZM657 -7Q619 -7 588 7T540 53T522 140Q522 202 538 257T584 353T655 419T745 443Q802 443 839 411T877 298Q877 229 861 174T815 78T745
15T657 -7ZM674 73Q698 73 722 83T766 117T799 177T812 269Q812 305 801 325T770 354T727 363Q705 363 681 354T637 322T603 261T590 167Q590 129 603 109T635 81T674 73Z" />
<glyph unicode="&amp;" horiz-adv-x="593" d="M227 -11Q132 -11 77 30T21 153Q21 203 44 245T111 319T212 363Q182 380 162 406T141 475Q141 517 159 545T208 592T275 618T345 627Q379 627 408 623T465 612T519 595L484 453H430L426 543Q407 550 388 554T343 558Q317
558 297 548T265 517T254 468Q254 439 265 421T296 392T344 377L341 320Q279 318 234 304T163 255T138 155Q138 106 172 80T261 54Q294 54 321 60T365 72L392 209L320 213L313 273H584V199L493 204L462 37Q422 19 362 4T227 -11Z" />
<glyph unicode="&apos;" horiz-adv-x="154" d="M91 468L101 700H205L126 468H91Z" />
<glyph unicode="(" horiz-adv-x="319" d="M207 -182Q117 -154 78 -104T39 39Q39 84 46 139T68 265Q89 373 113 449T171 577T255 660T381 714L385 676Q341 658 309 625T254 549T216 458T189 360T169 265Q159 212 149 153T139 39Q139 -2 147 -38T174 -102T225 -146L207
-182Z" />
<glyph unicode=")" horiz-adv-x="319" d="M-62 -182L-66 -146Q-22 -128 10 -95T65 -18T103 73T130 171T150 265Q160 318 169 377T179 492Q179 533 172 569T145 633T93 676L112 714Q201 686 239 636T278 493Q278 449 271 392T248 265Q227 157 204 81T147 -46T63
-129T-62 -182Z" />
<glyph unicode="*" horiz-adv-x="327" d="M133 421L65 477L164 561L163 569L52 588L97 679L195 626L201 630L206 748H299L260 630L267 625L383 679L393 588L274 569L270 561L335 477L249 421L215 525H206L133 421Z" />
<glyph unicode="+" horiz-adv-x="510" d="M217 102V269H51V339H217V505H286V339H454V269H286V102H217Z" />
<glyph unicode="," horiz-adv-x="196" d="M7 -117L-34 -109L19 114L121 136L141 111L7 -117Z" />
<glyph unicode="-" horiz-adv-x="282" d="M1 206L13 271H278L266 206H1Z" />
<glyph unicode="." horiz-adv-x="212" d="M71 -8Q42 -8 19 12T-4 63Q-4 94 19 115T71 137Q102 137 123 116T145 63Q145 33 124 13T71 -8Z" />
<glyph unicode="/" horiz-adv-x="368" d="M16 -114L275 688H360L99 -114H16Z" />
<glyph unicode="0" horiz-adv-x="504" d="M206 -10Q151 -10 113 13T54 84T33 200Q33 292 51 370T104 506T191 596T310 628Q361 628 399 607T458 542T479 432Q479 332 461 251T406 111T320 21T206 -10ZM224 86Q276 86 314 123T373 227T395 386Q395 439 382 471T346
518T291 533Q250 533 218 512T164 451T131 358T119 241Q119 186 132 152T169 102T224 86Z" />
<glyph unicode="1" horiz-adv-x="504" d="M13 0L21 43L179 71L261 533H103L112 577L387 617L290 70L435 43L427 0H13Z" />
<glyph unicode="2" horiz-adv-x="504" d="M-2 0L-12 63L236 279Q281 319 306 351T342 413T353 476Q353 508 331 529T262 551Q236 551 213 547T167 534T118 516L97 571Q127 585 157 598T226 619T316 628Q360 628 396 617T455 576T478 494Q478 445 457 401T395 312T290
217L106 70L343 79L399 163H448L408 0H-2Z" />
<glyph unicode="3" horiz-adv-x="504" d="M146 -9Q101 -9 71 -8T4 4L15 63Q55 57 82 56T122 55Q173 55 213 70T277 119T301 203Q301 243 279 262T222 288T146 295V347Q212 357 252 378T310 430T329 495Q329 527 310 541T249 556Q224 556 189 548T109 522L94 574Q121
589 151 601T214 620T279 628Q336 628 373 615T428 576T447 512Q447 471 426 437T370 378T298 337Q357 324 388 289T420 205Q420 138 385 90T289 17T146 -9Z" />
<glyph unicode="4" horiz-adv-x="504" d="M240 0L263 133H-7L-13 180L370 622L456 613L382 200H462L450 133H371L347 0H240ZM92 200H275L322 467L92 200Z" />
<glyph unicode="5" horiz-adv-x="504" d="M157 -12Q116 -12 78 -9T6 3L20 68Q40 63 57 61T94 57T144 55Q193 55 233 74T296 128T320 215Q320 256 299 281T228 317T95 329L85 356L155 613H480L467 538H212L177 395Q260 393 311 379T391 340T429 287T440 224Q440
156 407 103T310 19T157 -12Z" />
<glyph unicode="6" horiz-adv-x="504" d="M202 -13Q154 -13 121 1T70 40T43 97T35 165Q35 257 68 336T157 478T284 580T429 633L436 586Q375 568 324 532T234 444T176 328Q201 348 236 365T323 382Q376 382 406 364T450 314T464 244Q464 217 458 183T435 114T389
51T314 5T202 -13ZM225 50Q269 50 296 75T335 141T348 232Q348 256 343 274T325 304T285 315Q259 315 236 305T193 279T160 250Q155 228 153 206T150 167Q150 131 156 105T179 64T225 50Z" />
<glyph unicode="7" horiz-adv-x="504" d="M162 -31L62 3L406 535H170L134 457H76L100 613H493L508 573L162 -31Z" />
<glyph unicode="8" horiz-adv-x="504" d="M200 -12Q134 -12 97 4T46 47T31 109Q31 148 52 186T107 258T182 312Q150 335 128 369T105 449Q105 497 130 537T206 603T330 628Q384 628 417 613T466 570T482 510Q482 485 469 456T425 395T337 332Q386 297 410 259T434
178Q434 128 408 85T330 15T200 -12ZM215 47Q264 47 297 73T331 147Q331 172 321 192T288 234T230 279Q199 259 178 234T145 182T133 124Q133 82 154 65T215 47ZM287 365Q340 395 363 428T387 499Q387 520 381 536T357 561T311 571Q284 571 260 561T220 530T205
478Q205 459 212 441T238 405T287 365Z" />
<glyph unicode="9" horiz-adv-x="504" d="M56 -16L49 30Q101 38 149 60T237 115T304 190T343 279Q315 260 280 247T195 233Q112 233 81 277T49 395Q49 416 56 446T80 507T125 566T196 611T298 628Q361 628 400 602T458 533T477 437Q477 326 441 242T344 101T209
15T56 -16ZM241 304Q264 304 284 310T323 326T356 345Q361 370 364 399T367 453Q367 489 358 513T330 551T276 564Q242 564 216 545T176 491T162 412Q162 358 181 331T241 304Z" />
<glyph unicode=":" horiz-adv-x="234" d="M144 348Q114 348 91 368T68 421Q68 452 91 474T144 497Q176 497 198 475T220 421Q220 389 198 369T144 348ZM85 -8Q56 -8 33 13T10 65Q10 97 33 119T85 141Q117 141 139 119T161 65Q161 34 139 13T85 -8Z" />
<glyph unicode=";" horiz-adv-x="226" d="M32 -117L-9 -109L44 114L146 136L166 111L32 -117ZM146 348Q116 348 93 368T70 421Q70 452 93 474T146 497Q177 497 199 475T222 421Q222 389 200 369T146 348Z" />
<glyph unicode="&lt;" horiz-adv-x="514" d="M412 105L40 303L412 502L450 439L181 303L450 168L412 105Z" />
<glyph unicode="=" horiz-adv-x="514" d="M50 355V425H454V355H50ZM50 183V252H454V183H50Z" />
<glyph unicode="&gt;" horiz-adv-x="514" d="M90 105L52 168L321 303L52 439L90 502L462 303L90 105Z" />
<glyph unicode="?" horiz-adv-x="376" d="M138 159Q102 159 84 170T65 215Q65 238 90 266T161 332Q212 375 237 404T269 454T277 489Q277 530 257 547T202 564Q180 564 155 558T113 546T95 540L78 586Q93 595 116 605T171 622T241 629Q306 629 348 596T390 503Q390
470 376 440T330 378T242 305Q196 272 173 252T149 217Q149 207 154 203T168 197T181 196L174 162Q174 162 162 161T138 159ZM94 -12Q68 -12 49 6T29 50Q29 77 48 96T94 115Q121 115 139 96T158 50Q158 24 140 6T94 -12Z" />
<glyph unicode="@" horiz-adv-x="742" d="M292 -80Q206 -80 143 -48T45 44T10 184Q10 258 40 325T125 444T257 527T426 557Q499 557 554 539T646 487T703 409T722 314Q722 261 704 214T652 132T573 76T474 56Q438 56 422 70T406 109Q406 117 407 126T410 141Q385
100 353 78T281 56Q248 56 227 71T194 114T183 182Q183 229 198 272T242 348T310 401T397 421Q409 421 425 420T458 416T483 411L498 436Q502 436 509 436T522 437Q533 437 541 435T550 430Q550 428 546 412T534 370T519 314T505 253T494 199T489 160Q489 147 493
142T509 137Q536 137 558 151T595 190T619 246T628 313Q628 370 605 412T537 477T426 501Q355 501 296 476T195 406T129 304T105 181Q105 88 160 36T315 -17Q349 -17 386 -12T461 4T536 30L554 -12Q494 -44 428 -62T292 -80ZM315 126Q347 126 369 157T406 242T432
358Q421 362 413 363T392 365Q367 365 347 349T313 307T291 247T283 180Q283 154 289 140T315 126Z" />
<glyph unicode="A" horiz-adv-x="556" d="M-56 0L-49 41L21 62L308 614L376 627L463 63L526 41L518 0H273L281 42L346 59L328 178H151L91 61L154 42L145 0H-56ZM179 231H320L290 446L179 231Z" />
<glyph unicode="B" horiz-adv-x="539" d="M-13 0L-6 41L79 63L174 550L97 572L105 613H356Q449 613 490 581T532 497Q532 449 510 414T452 355T372 324Q439 312 471 280T503 200Q503 143 470 98T376 26T232 0H-13ZM243 54Q269 54 294 62T339 89T371 135T383 202Q383
248 352 270T269 293H239L194 62Q204 59 217 57T243 54ZM249 341H282Q303 341 326 348T368 372T400 417T413 488Q413 525 394 541T339 558Q324 558 312 557T290 553L249 341Z" />
<glyph unicode="C" horiz-adv-x="525" d="M268 -10Q186 -10 136 16T63 93T40 214Q40 294 62 368T129 500T240 593T392 627Q449 627 490 620T561 602L523 454H476L474 554Q455 560 434 563T383 566Q323 566 282 534T215 450T179 336T168 211Q168 158 180 123T221
70T296 52Q316 52 336 54T381 64L419 150H467L448 22Q406 7 365 -1T268 -10Z" />
<glyph unicode="D" horiz-adv-x="628" d="M-13 0L-6 41L80 63L174 550L97 572L105 613H369Q496 613 554 556T613 403Q613 325 591 254T525 125T415 34T262 0H-13ZM273 54Q319 54 353 75T413 132T454 214T478 308T486 404Q486 483 454 520T353 557Q330 557 315
555T290 551L195 66Q210 60 231 57T273 54Z" />
<glyph unicode="E" horiz-adv-x="522" d="M-13 0L-6 41L81 63L176 550L97 572L105 613H538L511 472H464L461 551H292L249 332H364L394 398H439L402 211H358L351 280H239L197 64H381L423 157H470L440 0H-13Z" />
<glyph unicode="F" horiz-adv-x="490" d="M-13 0L-6 41L81 63L176 550L97 572L105 613H542L515 472H467L463 551H292L246 318H363L393 384H438L402 196H357L352 265H236L197 64L292 42L284 0H-13Z" />
<glyph unicode="G" horiz-adv-x="591" d="M274 -10Q189 -10 138 16T63 92T40 215Q40 296 62 370T129 503T241 594T399 628Q434 628 467 624T529 614T578 598L539 453H491L485 553Q469 558 445 562T388 566Q333 566 294 542T231 479T193 392T174 298T168 214Q168
171 177 134T214 74T294 51Q312 51 332 53T373 62L404 226L328 248L336 289H586L578 246L513 227L476 33Q441 15 389 3T274 -10Z" />
<glyph unicode="H" horiz-adv-x="689" d="M-13 0L-6 41L78 63L173 551L97 572L105 613H379L372 572L288 551L246 335H478L519 551L444 572L452 613H726L718 572L635 551L540 63L616 41L608 0H334L341 41L425 63L466 275H235L193 63L268 41L261 0H-13Z" />
<glyph unicode="I" horiz-adv-x="346" d="M-13 0L-6 41L80 63L174 550L97 572L105 613H383L376 572L290 550L195 63L272 41L265 0H-13Z" />
<glyph unicode="J" horiz-adv-x="324" d="M-1 -150Q-36 -150 -58 -141T-95 -119L-84 -86H-20Q24 -86 43 -51T73 37L170 550L93 572L101 613H376L369 572L283 550L191 63Q175 -20 148 -66T84 -131T-1 -150Z" />
<glyph unicode="K" horiz-adv-x="568" d="M-13 0L-6 41L80 63L174 550L97 572L105 613H377L369 571L290 550L248 339L476 555L424 572L432 613H637L630 573L560 552L335 337L467 66L544 41L537 0H367L238 286L195 63L262 41L255 0H-13Z" />
<glyph unicode="L" horiz-adv-x="469" d="M-13 0L-6 41L80 63L174 550L97 572L105 613H383L376 572L290 550L195 64H355L396 157H443L413 0H-13Z" />
<glyph unicode="M" horiz-adv-x="791" d="M287 -10L223 449L132 63L208 41L200 0H-22L-14 41L68 63L183 551L110 572L117 613H311L374 144L612 613H819L811 572L725 550L652 63L729 41L721 0H445L453 41L538 63L596 452L361 3L287 -10Z" />
<glyph unicode="N" horiz-adv-x="672" d="M434 -11L219 455L143 63L219 41L211 0H-13L-5 41L77 63L171 551L98 572L105 613H270L483 157L558 551L482 572L490 613H714L707 572L623 551L517 0L434 -11Z" />
<glyph unicode="O" horiz-adv-x="627" d="M265 -10Q183 -10 133 16T61 92T39 210Q39 290 62 365T129 499T238 592T388 627Q472 627 521 600T591 524T613 414Q613 333 591 258T524 122T415 26T265 -10ZM277 51Q324 51 359 74T419 136T459 221T480 319T487 415Q487
461 478 495T444 547T376 566Q323 566 286 539T226 468T189 375T171 281T166 208Q166 161 175 126T208 71T277 51Z" />
<glyph unicode="P" horiz-adv-x="523" d="M-13 0L-6 41L80 63L174 549L97 571L105 613H361Q449 613 494 578T539 474Q539 414 516 371T455 300T374 259T290 245Q285 245 274 245T251 248T232 251L195 63L294 42L286 0H-13ZM278 292Q307 292 333 303T379 337T411
393T423 470Q423 513 402 535T338 557Q327 557 315 556T290 551L240 296Q248 294 257 293T278 292Z" />
<glyph unicode="Q" horiz-adv-x="629" d="M458 -155Q442 -155 425 -150T385 -134T331 -101L176 -1Q101 34 70 86T39 213Q39 293 62 367T129 500T239 593T388 627Q472 627 521 600T592 524T614 414Q614 333 592 259T527 129T428 39T299 6L301 0Q329 -16 360 -32T421
-61T472 -82T504 -90H573L570 -123Q551 -134 518 -144T458 -155ZM277 51Q325 51 360 74T419 136T459 221T481 319T488 415Q488 461 478 495T444 547T376 566Q323 566 287 539T227 468T190 375T171 281T166 208Q166 161 175 126T208 71T277 51Z" />
<glyph unicode="R" horiz-adv-x="556" d="M-13 0L-6 41L81 63L175 550L97 572L105 613H363Q427 613 466 598T522 554T540 488Q540 454 529 424T495 369T443 326T375 297Q396 289 408 277T428 242T446 176T470 63L532 41L525 0H362Q346 75 336 124T319 203T304
248T286 267T262 272H237L196 63L267 41L260 0H-13ZM246 322H289Q328 322 358 342T404 399T421 485Q421 523 402 541T339 559Q328 559 315 557T291 552L246 322Z" />
<glyph unicode="S" horiz-adv-x="471" d="M157 -10Q118 -10 74 -3T-7 21L25 154H72L78 67Q92 63 117 58T174 52Q237 52 272 83T308 167Q308 197 291 217T242 255L174 290Q156 299 135 316T98 359T82 424Q82 519 142 573T321 628Q361 628 400 620T475 598L443 460H397L389
552Q376 557 355 561T311 565Q254 565 220 538T186 459Q186 430 203 414T254 380L323 344Q368 321 393 288T418 208Q418 144 390 95T304 18T157 -10Z" />
<glyph unicode="T" d="M57 0L64 41L156 63L250 551H138L102 461H57L80 613H565L529 461H481V551H366L272 63L354 41L347 0H57Z" />
<glyph unicode="U" horiz-adv-x="621" d="M268 -10Q197 -10 155 11T96 70T78 157Q78 181 81 208T91 265L146 551L71 572L79 613H353L346 572L262 551L207 264Q201 235 198 208T194 156Q194 109 215 80T294 51Q347 51 382 78T437 148T467 242L527 551L451 572L458
613H684L676 572L594 551L533 236Q527 204 512 162T468 81T391 16T268 -10Z" />
<glyph unicode="V" horiz-adv-x="559" d="M198 -8L123 550L60 572L68 613H310L302 572L238 552L287 155L487 552L425 572L432 613H633L626 571L554 550L275 3L198 -8Z" />
<glyph unicode="W" horiz-adv-x="814" d="M182 -11L123 550L60 572L68 613H309L301 572L239 552L275 179L440 551L539 569L580 176L741 552L679 572L687 613H889L882 573L810 550L565 3L489 -11L441 457L463 456L261 3L182 -11Z" />
<glyph unicode="X" horiz-adv-x="557" d="M-43 0L-36 41L31 61L230 301L130 552L71 572L79 613H321L313 570L247 552L315 382L462 552L399 570L408 613H615L607 572L539 552L339 321L446 60L512 41L504 0H259L267 43L328 60L255 239L109 61L171 41L163 0H-43Z" />
<glyph unicode="Y" horiz-adv-x="539" d="M78 0L85 41L177 63L214 253L129 549L67 572L75 612L315 613L307 571L242 550L306 317L458 552L396 572L404 613H606L599 573L527 550L327 245L292 63L375 41L367 0H78Z" />
<glyph unicode="Z" horiz-adv-x="498" d="M-2 0L-12 33L381 550H181L145 472H96L115 613H532L531 580L138 64H352L406 157H453L414 0H-2Z" />
<glyph unicode="[" horiz-adv-x="319" d="M4 -167L172 697H391L383 655L263 648L115 -115L232 -124L223 -167H4Z" />
<glyph unicode="\" horiz-adv-x="368" d="M279 -139L7 697H91L362 -139H279Z" />
<glyph unicode="]" horiz-adv-x="319" d="M-69 -167L-60 -124L59 -115L207 648L90 655L98 697H316L148 -167H-69Z" />
<glyph unicode="^" horiz-adv-x="476" d="M32 250L212 613H265L444 250H361L239 504L115 250H32Z" />
<glyph unicode="_" horiz-adv-x="446" d="M-59 -72L-49 -18H391L381 -72H-59Z" />
<glyph unicode="`" horiz-adv-x="263" d="M311 570L85 677L88 698L177 730L331 599L311 570Z" />
<glyph unicode="a" horiz-adv-x="532" d="M157 -9Q124 -9 95 4T48 51T31 143Q31 256 68 338T168 465T311 510Q337 510 366 504T411 493L435 530L490 521L431 210Q423 168 418 126T412 60H488V19Q448 3 417 -3T358 -9Q329 -9 314 3T298 39Q298 43 298 51T300 70T303
89Q284 60 259 38T208 3T157 -9ZM193 66Q210 66 232 81T276 117T308 155L363 434Q350 442 336 445T307 449Q268 449 239 425T189 358T158 261T148 145Q148 100 160 83T193 66Z" />
<glyph unicode="b" horiz-adv-x="522" d="M211 -9Q145 -9 101 3T34 27L158 655L85 664L77 698Q107 708 139 716T201 729T250 734Q262 734 267 728T273 711Q273 706 269 683T260 627T247 559T234 492T225 441T222 420Q245 450 271 470T325 500T378 511Q411 511
437 499T480 456T496 373Q496 323 487 270T458 166T405 77T324 14T211 -9ZM229 52Q267 52 295 78T341 150T369 250T378 361Q378 406 366 421T332 436Q319 436 303 429T271 409T239 381T211 349L158 77Q168 65 186 59T229 52Z" />
<glyph unicode="c" horiz-adv-x="402" d="M191 -10Q145 -10 109 6T53 58T32 150Q32 222 49 287T102 402T190 482T315 511Q345 511 374 506T428 489L398 356H351L341 444Q331 447 321 448T300 449Q259 449 231 425T185 360T159 270T151 171Q151 114 169 86T235
57Q255 57 279 62T330 76L341 32Q305 10 265 0T191 -10Z" />
<glyph unicode="d" horiz-adv-x="549" d="M148 -9Q119 -9 92 4T48 49T31 139Q31 257 68 340T169 467T315 511Q335 511 351 510T381 504L412 655L338 663L329 698Q359 709 392 717T454 729T504 734Q516 734 521 728T527 712Q527 708 523 683T511 617T496 526T477
421T457 313T437 211Q430 176 427 146T421 93T418 60H494V19Q453 3 421 -3T363 -9Q334 -9 319 3T304 39Q304 45 305 57T307 79T309 89Q290 61 265 39T209 4T148 -9ZM197 65Q209 65 225 73T258 95T290 124T314 155L369 436Q358 443 341 447T303 451Q268 451 242
431T199 379T170 306T154 225T149 145Q149 98 162 82T197 65Z" />
<glyph unicode="e" horiz-adv-x="431" d="M195 -10Q146 -10 110 7T54 63T34 163Q34 225 50 287T101 400T190 481T320 511Q371 511 405 487T439 413Q439 331 366 284T156 236Q153 217 152 202T150 167Q150 130 159 106T191 70T250 58Q271 58 296 62T345 76L355
33Q328 16 290 3T195 -10ZM163 283Q241 283 289 314T337 402Q337 421 328 435T293 449Q246 449 212 406T163 283Z" />
<glyph unicode="f" horiz-adv-x="299" d="M-27 -178Q-66 -178 -96 -170T-148 -150L-136 -102Q-117 -108 -94 -112T-52 -117Q-7 -117 14 -93T45 -14L120 428H46L36 468L134 495L147 563Q156 612 174 650T229 711T328 734Q356 734 388 726T446 704L429 650Q408 654
388 656T350 659Q318 659 299 650T270 620T252 558L241 492H338V428H230L156 -21Q144 -96 102 -137T-27 -178Z" />
<glyph unicode="g" horiz-adv-x="512" d="M143 -181Q101 -181 57 -172T-18 -148L1 -94Q28 -104 63 -110T126 -116Q179 -116 212 -97T266 -34T299 88Q282 67 259 51T210 26T154 17Q126 17 98 29T52 72T34 160Q34 234 52 298T107 410T194 484T311 511Q333 511 352
509T386 502T408 495L440 530L493 522L394 13Q384 -34 364 -70T312 -131T238 -168T143 -181ZM197 89Q215 89 237 98T280 125T311 163L365 436Q354 443 338 446T305 450Q270 450 245 432T202 384T173 317T157 240T152 166Q152 120 164 105T197 89Z" />
<glyph unicode="h" horiz-adv-x="554" d="M32 -10L163 654L90 663L82 697Q111 708 143 716T205 729T254 734Q267 734 272 727T278 709Q278 706 275 686T266 636T255 571T243 503T232 444T225 406Q254 434 290 458T365 496T435 511Q463 511 479 498T495 449Q495
439 490 408T476 335T457 243T436 147T418 60H499V18Q470 5 436 -2T376 -10Q358 -10 342 -6T316 12T306 51Q306 59 311 85T325 148T342 225T359 302T372 366T377 402Q377 418 371 423T352 428Q336 428 311 416T259 385T214 342L154 5L32 -10Z" />
<glyph unicode="i" horiz-adv-x="303" d="M114 -10Q84 -10 69 1T53 43Q53 51 58 80T73 151T92 243T112 342T131 432L62 440L54 476Q88 486 123 494T186 506T229 511Q239 511 244 506T250 489Q250 485 244 454T229 375T209 271T187 160T166 60H244V18Q206 4 173
-3T114 -10ZM221 583Q193 583 172 603T151 652Q151 680 172 700T221 721Q248 721 269 701T291 651Q291 623 270 603T221 583Z" />
<glyph unicode="j" horiz-adv-x="287" d="M-20 -178Q-54 -178 -82 -170T-126 -154T-143 -146L-129 -99Q-112 -105 -93 -109T-55 -113Q-16 -113 12 -91T50 -10L133 433L64 440L56 476Q86 486 121 494T186 506T232 511Q254 511 254 488Q254 486 248 452T232 361T209
239T184 105T161 -20Q148 -93 104 -135T-20 -178ZM218 583Q190 583 169 603T148 652Q148 680 169 700T218 721Q245 721 266 701T288 651Q288 623 267 603T218 583Z" />
<glyph unicode="k" horiz-adv-x="514" d="M33 -10L164 654L90 663L83 698Q131 714 179 724T255 734Q268 734 273 727T278 710Q278 703 274 675T262 603T245 509T226 408Q239 423 262 441T314 475T374 501T436 511Q471 511 489 494T507 444Q507 390 467 338T328
255L396 60H472V18Q426 2 392 -4T330 -10Q317 -10 304 9T280 58T258 121T241 185T229 234T225 253L230 269Q288 284 324 305T379 351T397 404Q397 420 390 426T366 433Q346 433 318 420T262 387T215 343L155 5L33 -10Z" />
<glyph unicode="l" horiz-adv-x="304" d="M108 -10Q80 -10 65 3T49 44Q49 48 52 67T61 118T75 193T93 287T115 398T138 522T164 653L90 662L82 697Q111 707 144 715T207 729T257 734Q270 734 275 727T280 710Q280 707 280 700T277 683L166 61H247V19Q204 4 167
-3T108 -10Z" />
<glyph unicode="m" horiz-adv-x="813" d="M45 -10L132 429L60 438L52 473Q81 483 114 491T177 504T226 509Q237 509 241 504T247 493T249 483Q249 478 247 463T242 431T237 406Q265 434 301 458T374 496T441 511Q469 511 484 495T500 450Q500 443 499 432T496
408Q524 436 559 459T631 497T694 511Q728 511 741 497T754 448Q754 438 749 408T736 334T717 242T696 146T678 60H758V18Q730 5 697 -2T639 -10Q619 -10 602 -6T576 12T566 54Q566 62 571 87T584 148T601 223T618 298T631 361T636 398Q636 413 633 421T616 429Q600
429 576 416T527 384T485 344L423 5L301 -10Q310 35 320 86T341 189T360 283T374 355T380 394Q380 410 377 419T359 429Q342 429 318 416T270 383T227 342L168 5L45 -10Z" />
<glyph unicode="n" horiz-adv-x="568" d="M45 -10L132 429L60 438L52 473Q81 483 114 491T176 504T226 510Q239 510 245 503T251 484Q251 479 249 464T244 432T238 406Q274 440 312 464T386 500T447 512Q481 512 494 496T508 447Q508 436 503 406T490 332T471
241T451 146T432 60H512V18Q484 5 451 -2T390 -10Q358 -10 339 2T320 51Q320 60 325 86T338 148T355 224T372 300T386 364T391 402Q391 413 386 421T367 429Q351 429 326 418T274 386T227 342L168 5L45 -10Z" />
<glyph unicode="o" horiz-adv-x="502" d="M182 -10Q104 -10 68 31T32 142Q32 260 68 342T170 467T320 511Q374 511 407 492T457 438T473 359Q473 243 436 161T334 34T182 -10ZM208 50Q250 50 278 79T324 154T348 255T355 360Q355 400 344 425T297 450Q262 450
237 430T194 376T168 301T154 218T150 141Q150 100 161 75T208 50Z" />
<glyph unicode="p" horiz-adv-x="543" d="M16 -188L134 433L60 441L52 476Q81 486 114 494T178 507T228 512Q240 512 247 506T254 488Q254 480 252 465T247 436T243 417Q265 444 290 465T344 499T404 512Q453 512 484 482T516 374Q516 302 501 234T453 112T368
26T243 -6Q217 -6 201 -4T169 3L142 -172L16 -188ZM246 55Q284 55 310 75T354 128T381 202T395 283T399 359Q399 380 395 398T382 426T355 437Q341 437 324 429T289 408T257 379T231 348L181 74Q192 64 210 60T246 55Z" />
<glyph unicode="q" horiz-adv-x="518" d="M249 -189L299 79Q277 49 252 30T200 1T143 -9Q116 -9 91 2T48 44T31 131Q31 220 50 290T106 410T193 485T305 511Q340 511 364 507T410 494L444 527L496 519L382 -70L370 -174L249 -189ZM195 66Q213 66 236 79T280 113T314
156L368 430Q361 438 343 445T303 452Q267 452 241 433T198 381T170 307T154 223T149 138Q149 98 161 82T195 66Z" />
<glyph unicode="r" horiz-adv-x="403" d="M45 -10L132 429L60 438L52 473Q80 483 113 491T176 504T226 510Q238 510 244 503T250 484Q250 478 247 458T239 415T231 372Q256 420 284 452T351 500T441 516L410 347H354L343 427Q325 419 304 398T259 337T206 230L168
5L45 -10Z" />
<glyph unicode="s" horiz-adv-x="404" d="M147 -10Q112 -10 71 -4T-1 19L34 154H77L83 66Q96 60 114 56T162 52Q208 52 234 71T261 130Q261 147 252 161T212 190L134 225Q98 240 78 270T58 344Q58 395 82 432T151 490T261 511Q294 511 330 504T397 482L363 358H320L311
436Q301 442 282 445T244 449Q199 449 177 429T155 380Q155 358 166 346T201 322L281 286Q316 270 338 243T361 173Q361 86 304 38T147 -10Z" />
<glyph unicode="t" horiz-adv-x="327" d="M108 -16Q81 -16 68 -5T55 26Q55 34 60 64T73 139T92 234T111 334T129 421H52L43 461L149 491L219 592H272L253 492H352V427H241L170 53H266V12Q219 -2 175 -9T108 -16Z" />
<glyph unicode="u" horiz-adv-x="559" d="M141 -9Q117 -9 99 -2T72 23T63 68Q63 92 70 137T89 237T112 343T131 434L61 442L53 477Q83 487 116 494T180 506T230 511Q243 511 249 505T255 488Q255 483 249 456T234 388T216 303T197 216T183 144T177 102Q177 84
182 76T201 67Q220 67 245 79T297 116T346 179L404 497L522 513L460 204Q453 170 449 140T442 88T439 60H514V19Q474 3 443 -3T384 -9Q355 -9 340 3T324 39Q324 43 325 51T327 70T329 89Q307 60 275 38T207 3T141 -9Z" />
<glyph unicode="v" horiz-adv-x="457" d="M86 -12Q89 15 90 46T92 110T93 169Q93 263 87 332T75 431L3 439L-5 475Q42 491 94 501T182 512Q187 512 190 484T197 410T201 309T203 200Q203 182 203 161T202 120T200 83Q264 136 298 195T346 309T360 403Q360 415
359 422T356 434L300 441L292 477Q339 492 379 501T448 513Q450 504 451 494T453 473Q453 408 438 349T397 238T338 143T268 64T195 6L86 -12Z" />
<glyph unicode="w" horiz-adv-x="718" d="M84 -12Q87 11 89 42T92 104T93 160Q93 255 87 327T75 431L3 439L-5 475Q41 490 90 501T178 512Q181 512 184 495T191 446T196 376T199 295T201 211Q201 196 201 179T200 144T199 110T197 83Q254 135 286 184T333 280T347
364Q347 380 345 402T339 448T329 494L442 512Q448 490 453 445T461 343T465 222Q465 186 464 147T461 83Q500 115 529 154T579 235T610 321T621 405Q621 414 620 421T617 434L561 441L553 477Q599 492 639 501T709 513Q711 503 712 493T713 473Q713 390 690 318T629
185T545 79T456 6L350 -12Q353 11 355 38T357 94T358 148T358 191Q348 168 331 143T291 93T243 46T194 6L84 -12Z" />
<glyph unicode="x" horiz-adv-x="430" d="M35 -27L-27 25L161 235L118 419Q117 425 115 429T108 435L31 443L23 477Q54 487 89 495T154 508T200 513Q206 513 211 497T224 451T242 377L253 332L403 520L464 469L268 261L322 60H409V19Q384 9 362 3T320 -6T278 -9Q258
-9 245 -4T221 19T201 71T178 163L35 -27Z" />
<glyph unicode="y" horiz-adv-x="478" d="M76 -188L122 -10L124 49Q125 80 123 121T117 207T106 295T93 373T76 431L3 440L-5 476Q44 492 94 502T176 513Q182 513 190 486T206 413T220 313T230 200T232 91Q278 136 307 178T352 261T374 337T381 405Q381 416 380
422T376 434L319 441L311 477Q350 489 391 500T467 513Q470 503 472 491T474 466Q474 386 451 316T390 185T309 79T228 1L193 -172L76 -188Z" />
<glyph unicode="z" horiz-adv-x="387" d="M271 -57Q240 -57 214 -45T164 -18T117 9T69 21Q57 21 46 15T26 0T11 -17L-32 13L274 404H58L46 501H338L378 517L421 481L92 60L67 94Q108 103 137 99T189 84T231 60T271 38T319 29Q330 29 342 31T366 37L380 -11Q356
-28 330 -42T271 -57Z" />
<glyph unicode="{" horiz-adv-x="319" d="M195 -193L26 -158L121 218L55 252L58 267L137 303L188 677L371 714L375 676L277 639L234 291L142 260L222 229L129 -120L213 -157L195 -193Z" />
<glyph unicode="|" horiz-adv-x="372" d="M136 -139V697H236V-139H136Z" />
<glyph unicode="}" horiz-adv-x="319" d="M-47 -193L-51 -157L46 -120L89 229L181 260L101 291L194 639L110 676L128 714L296 677L202 303L267 267L264 252L186 218L133 -158L-47 -193Z" />
<glyph unicode="~" horiz-adv-x="518" d="M94 211L53 234Q78 286 107 308T169 331Q200 331 229 318T288 292T344 279Q371 279 387 290T422 332L467 307Q412 207 340 207Q311 207 282 220T225 247T165 261Q146 261 130 250T94 211Z" />
<glyph unicode="&#xa0;" horiz-adv-x="166" />
<glyph unicode="&#xa1;" horiz-adv-x="263" d="M-1 -121L113 306H183L131 -121H-1ZM173 378Q147 378 126 396T105 442Q105 470 126 490T173 510Q201 510 220 490T239 442Q239 415 220 397T173 378Z" />
<glyph unicode="&#xa2;" horiz-adv-x="522" d="M186 -87L210 35Q168 41 138 61T91 117T74 206Q74 301 102 380T187 511T327 574L352 698H414L390 576Q418 575 447 569T499 550L465 409H416L407 503Q395 507 379 509T348 511Q305 511 275 485T228 417T202 323T194
219Q194 164 214 133T286 102Q314 102 344 108T404 123L412 80Q379 58 343 47T272 33L248 -87H186Z" />
<glyph unicode="&#xa3;" horiz-adv-x="504" d="M-10 0L-14 45Q-14 45 1 52T37 75T77 114T101 168L119 263H21L41 317H130Q150 420 178 487T251 587T364 621Q407 621 444 613T510 594L476 461H428L424 552Q412 557 398 559T371 561Q330 561 307 535T271 463T246
359L238 317H423L403 263H227L209 169Q204 144 188 123T150 86T106 58L368 70L427 122L450 106L398 0H-10Z" />
<glyph unicode="&#xa4;" horiz-adv-x="545" d="M83 29L46 79L109 131Q91 166 91 209Q91 253 108 293T155 366L112 419L171 468L213 414Q242 432 273 442T337 452Q403 452 447 414L510 467L549 419L486 366Q494 347 499 327T504 285Q504 245 487 204T440 131L483
80L426 30L383 83Q326 47 259 47Q193 47 149 83L83 29ZM273 123Q312 123 347 144T404 199T426 272Q426 317 397 346T322 376Q287 376 255 359T201 313T171 249Q171 242 170 236T169 224Q169 181 198 152T273 123Z" />
<glyph unicode="&#xa5;" horiz-adv-x="504" d="M54 0L61 41L154 67L183 220H26L36 271H184L165 334H47L57 385H151L105 546L44 572L52 613H293L284 572L220 546L274 325L413 546L354 572L362 613H566L558 572L483 546L378 385H473L463 334H345L305 271H452L442
220H286L257 67L340 41L332 0H54Z" />
<glyph unicode="&#xa6;" horiz-adv-x="393" d="M136 42V366H236V42H136ZM136 193V516H236V193H136Z" />
<glyph unicode="&#xa7;" horiz-adv-x="400" d="M143 -8Q102 -8 66 -2T3 12L41 142H85L90 56Q99 53 113 50T144 47Q164 47 185 53T221 73T236 113Q236 132 221 154T182 202T134 254T94 308T78 363Q78 383 85 399T103 429Q162 350 204 300T272 218T310 165T323 123Q323
83 298 54T233 8T143 -8ZM341 211Q282 289 241 338T173 419T134 473T122 518Q122 561 147 591T213 637T300 653Q356 653 392 644T434 631L396 503H349L346 588Q338 591 325 593T297 596Q279 596 258 592T222 575T207 536Q207 518 223 495T262 446T309 393T349 337T365
282Q365 255 356 237T341 211Z" />
<glyph unicode="&#xa8;" horiz-adv-x="339" d="M349 584Q321 584 300 603T279 650Q279 679 300 698T349 718Q376 718 396 699T416 650Q416 622 396 603T349 584ZM150 584Q122 584 101 603T80 650Q80 679 101 698T150 718Q178 718 198 699T218 650Q218 622 198
603T150 584Z" />
<glyph unicode="&#xa9;" horiz-adv-x="499" d="M250 210Q183 210 128 243T40 331T7 453Q7 521 40 576T128 664T250 697Q317 697 372 664T460 576T493 453Q493 387 460 332T372 243T250 210ZM253 294Q199 294 167 314T119 371T104 453Q104 498 119 534T167 592T253
613Q277 613 301 609T348 598L340 526H310L301 574Q289 577 280 578T261 580Q227 580 209 563T184 517T177 453Q177 422 184 393T209 346T259 327Q270 327 279 328T301 333L314 376H344L348 314Q326 304 304 299T253 294ZM250 242Q309 242 356 271T431 348T459
453Q459 511 431 559T356 635T250 664Q193 664 146 636T71 559T42 453Q42 396 70 348T146 271T250 242Z" />
<glyph unicode="&#xaa;" horiz-adv-x="436" d="M148 270Q123 270 101 280T64 316T50 384Q50 462 76 523T151 619T267 654Q297 654 318 649T339 643L361 665L405 656L362 428Q354 384 351 355T347 326H400V292Q368 281 344 276T304 270Q274 270 264 280T254 308Q254
311 254 317T256 328T257 338Q234 305 204 288T148 270ZM181 330Q192 330 208 339T239 364T264 399Q264 399 267 419T277 471T289 536T301 597Q293 602 283 604T263 607Q230 607 208 587T173 534T153 465T147 398Q147 369 151 355T163 335T181 330Z" />
<glyph unicode="&#xab;" horiz-adv-x="404" d="M297 65L193 242L366 421L407 391L300 242L350 95L297 65ZM130 65L26 242L200 421L240 391L133 242L183 95L130 65Z" />
<glyph unicode="&#xac;" horiz-adv-x="540" d="M406 123V269H67V339H472V123H406Z" />
<glyph unicode="&#xad;" horiz-adv-x="282" d="M1 206L13 271H278L266 206H1Z" />
<glyph unicode="&#xae;" horiz-adv-x="499" d="M250 210Q183 210 128 243T40 331T7 453Q7 521 40 576T128 664T250 697Q317 697 372 664T460 576T493 453Q493 387 460 332T372 243T250 210ZM250 242Q309 242 356 271T431 348T459 453Q459 511 431 559T356 635T250
664Q193 664 146 636T71 559T42 453Q42 396 70 348T146 271T250 242ZM124 306V327L157 335V582L124 590V612H252Q292 612 314 601T347 572T357 537Q357 521 351 505T332 474T293 453Q307 447 314 435T335 394Q342 382 349 368T366 335L394 327V306H305Q285 356
274 384T255 424T242 438T226 441H220V335L255 327V306H124ZM220 467H240Q265 467 277 485T289 531Q289 555 277 570T236 585Q233 585 229 585T220 583V467Z" />
<glyph unicode="&#xaf;" horiz-adv-x="236" d="M74 607L84 677H316L306 607H74Z" />
<glyph unicode="&#xb0;" horiz-adv-x="447" d="M223 401Q180 401 144 422T87 478T65 558Q65 602 86 638T144 695T223 717Q267 717 302 696T359 638T381 558Q381 514 360 479T303 422T223 401ZM223 446Q270 446 295 478T320 559Q320 605 295 638T223 672Q177 672
152 639T126 559Q126 511 151 479T223 446Z" />
<glyph unicode="&#xb1;" horiz-adv-x="514" d="M222 102V269H55V339H222V505H291V339H459V269H291V102H222ZM55 11V80H459V11H55Z" />
<glyph unicode="&#xb2;" horiz-adv-x="409" d="M54 277L48 319L223 468Q247 489 267 512T300 559T312 608Q312 632 298 644T252 656Q227 656 205 651T150 632L131 678Q161 695 204 706T289 718Q331 718 358 708T400 678T415 627Q415 594 401 564T356 501T278 430L156
334H307L341 394L393 393L363 277H54Z" />
<glyph unicode="&#xb3;" horiz-adv-x="409" d="M173 269Q145 269 113 273T53 286L70 338Q99 328 124 326T167 323Q195 323 220 332T261 363T277 419Q277 446 261 458T219 474T168 478L169 521Q214 526 242 541T284 578T298 620Q298 639 287 649T246 659Q227 659
201 653T144 631L131 677Q162 694 205 705T287 717Q335 717 367 698T400 639Q400 611 386 587T350 543T300 512Q337 502 357 478T377 419Q377 366 349 333T275 284T173 269Z" />
<glyph unicode="&#xb4;" horiz-adv-x="231" d="M89 558L66 587L221 722L312 686V665L89 558Z" />
<glyph unicode="&#xb5;" horiz-adv-x="557" d="M0 -183L123 435L56 442L49 477Q77 487 108 494T167 506T215 511Q227 511 232 505T237 488Q237 483 232 459T220 399T204 321T187 240T174 170T169 124Q169 93 179 82T208 70Q230 70 250 87T288 134T319 200T340
276L377 497L491 513L429 190Q422 157 418 130T413 86T409 61H483V20Q438 6 405 -1T350 -8Q323 -8 313 5T303 38Q303 43 305 53T309 75T313 92Q285 41 253 16T176 -9Q163 -9 152 -3T133 12T122 32L119 31Q122 17 122 -1T120 -32L108 -166L0 -183Z" />
<glyph unicode="&#xb6;" horiz-adv-x="533" d="M153 0L160 41L265 65L371 613H559L550 573L462 548L369 64L448 40L440 0H153ZM229 216Q149 216 110 259T70 369Q70 418 87 462T136 542T211 597T307 617Q315 617 319 617T329 615L252 218Q247 217 241 217T229 216Z" />
<glyph unicode="&#xb7;" horiz-adv-x="243" d="M123 184Q93 184 74 204T54 253Q54 282 73 301T123 321Q153 321 172 302T192 253Q192 224 173 204T123 184Z" />
<glyph unicode="&#xb8;" horiz-adv-x="255" d="M10 -220Q-25 -220 -55 -206L-40 -175Q-30 -179 -21 -180T-2 -181Q27 -181 46 -165T65 -123Q65 -108 53 -98T9 -86L6 -71L48 7H88L62 -45Q109 -45 130 -62T152 -106Q152 -140 132 -166T79 -206T10 -220Z" />
<glyph unicode="&#xb9;" horiz-adv-x="409" d="M171 277L242 642H128L134 678L349 710L265 277H171Z" />
<glyph unicode="&#xba;" horiz-adv-x="402" d="M166 269Q105 269 77 299T48 382Q48 468 75 529T153 622T268 654Q310 654 336 640T375 600T387 541Q387 455 360 394T283 301T166 269ZM183 316Q214 316 235 336T268 391T286 464T292 540Q292 570 285 588T252 606Q221
606 200 584T167 527T149 454T144 382Q144 353 151 335T183 316Z" />
<glyph unicode="&#xbb;" horiz-adv-x="404" d="M37 65L-3 95L105 243L55 391L107 421L211 243L37 65ZM204 65L165 95L271 243L222 391L274 421L377 243L204 65Z" />
<glyph unicode="&#xbc;" horiz-adv-x="914" d="M268 -45L489 634H564L343 -45H268ZM112 172L183 537H68L75 573L290 605L206 172H112ZM667 0L684 85H484L478 123L770 439L841 431L785 141H843L832 85H774L757 0H667ZM571 141H694L731 318L571 141Z" />
<glyph unicode="&#xbd;" horiz-adv-x="914" d="M262 -45L482 634H557L337 -45H262ZM113 172L184 537H70L76 573L291 605L207 172H113ZM498 0L493 42L667 191Q692 212 712 234T744 281T757 331Q757 354 743 366T697 378Q671 378 649 373T595 355L576 401Q606 418
649 429T734 441Q776 441 803 431T845 401T859 351Q859 318 845 287T801 223T723 153L596 55L755 62L792 116H838L808 0H498Z" />
<glyph unicode="&#xbe;" horiz-adv-x="914" d="M323 -45L543 634H619L398 -45H323ZM144 164Q116 164 84 168T24 181L40 233Q69 223 95 221T137 218Q166 218 191 227T232 258T248 314Q248 341 232 353T190 369T139 373L140 416Q184 421 212 436T255 473T269 515Q269
534 257 544T217 554Q197 554 171 548T114 526L102 572Q133 589 175 600T258 612Q306 612 338 593T370 534Q370 506 356 482T320 438T271 407Q308 397 328 373T348 314Q348 261 320 228T246 179T144 164ZM702 0L718 85H519L513 123L805 439L876 431L819 141H877L866
85H808L792 0H702ZM606 141H729L766 318L606 141Z" />
<glyph unicode="&#xbf;" horiz-adv-x="376" d="M154 -130Q89 -130 47 -97T5 -4Q5 29 18 59T64 121T153 194Q198 226 222 246T246 282Q246 292 240 296T227 301T214 303L221 337Q221 337 233 338T256 340Q292 340 311 328T330 283Q330 260 305 233T234 167Q183
124 158 94T125 44T117 9Q117 -31 137 -48T192 -66Q215 -66 239 -60T282 -48T300 -42L316 -87Q302 -95 278 -105T222 -123T154 -130ZM300 384Q273 384 254 403T235 449Q235 475 254 492T300 510Q325 510 344 493T364 449Q364 422 345 403T300 384Z" />
<glyph unicode="&#xc0;" horiz-adv-x="556" d="M-56 0L-49 41L21 62L308 614L376 627L463 63L526 41L518 0H273L281 42L346 59L328 178H151L91 61L154 42L145 0H-56ZM179 231H320L290 446L179 231ZM425 640L200 747L202 768L292 800L446 669L425 640Z" />
<glyph unicode="&#xc1;" horiz-adv-x="556" d="M-56 0L-49 41L21 62L308 614L376 627L463 63L526 41L518 0H273L281 42L346 59L328 178H151L91 61L154 42L145 0H-56ZM179 231H320L290 446L179 231ZM276 640L253 669L408 800L499 768V747L276 640Z" />
<glyph unicode="&#xc2;" horiz-adv-x="556" d="M-56 0L-49 41L21 62L308 614L376 627L463 63L526 41L518 0H273L281 42L346 59L328 178H151L91 61L154 42L145 0H-56ZM179 231H320L290 446L179 231ZM221 643L199 669L331 798H407L488 666L460 643L357 717L221 643Z" />
<glyph unicode="&#xc3;" horiz-adv-x="556" d="M-56 0L-49 41L21 62L308 614L376 627L463 63L526 41L518 0H273L281 42L346 59L328 178H151L91 61L154 42L145 0H-56ZM179 231H320L290 446L179 231ZM442 660Q425 660 402 666T355 679T309 692T274 698Q265 698 257
693T243 681T232 666L191 682Q207 724 228 753T274 783Q297 783 329 774T392 755T442 745Q451 745 459 750T474 763T484 778L524 761Q506 720 487 690T442 660Z" />
<glyph unicode="&#xc4;" horiz-adv-x="556" d="M-56 0L-49 41L21 62L308 614L376 627L463 63L526 41L518 0H273L281 42L346 59L328 178H151L91 61L154 42L145 0H-56ZM179 231H320L290 446L179 231ZM463 655Q436 655 415 674T394 721Q394 750 415 769T463 789Q490
789 510 770T531 721Q531 694 511 675T463 655ZM245 655Q217 655 196 674T174 721Q174 750 195 769T245 789Q272 789 292 770T313 721Q313 694 293 675T245 655Z" />
<glyph unicode="&#xc5;" horiz-adv-x="556" d="M-56 0L-49 41L21 62L308 614L376 627L463 63L526 41L518 0H273L281 42L346 59L328 178H151L91 61L154 42L145 0H-56ZM179 231H320L290 446L179 231ZM342 638Q297 638 274 657T250 708Q250 740 263 766T305 809T378
826Q426 826 447 804T468 749Q468 701 433 670T342 638ZM350 680Q381 680 391 703T402 749Q402 764 393 773T366 782Q336 782 326 760T316 714Q316 699 322 690T350 680Z" />
<glyph unicode="&#xc6;" horiz-adv-x="726" d="M-86 0L-78 41L-8 62L350 556L293 572L301 613H715L688 472H640L637 551H486L455 313H557L590 379H632L596 191H554L545 260H448L423 64H585L627 157H674L644 0H214L221 41L308 63L334 260H209L66 61L128 42L119
0H-86ZM247 313H341L362 472L247 313Z" />
<glyph unicode="&#xc7;" horiz-adv-x="525" d="M268 -10Q186 -10 136 16T63 93T40 214Q40 294 62 368T129 500T240 593T392 627Q449 627 490 620T561 602L523 454H476L474 554Q455 560 434 563T383 566Q323 566 282 534T215 450T179 336T168 211Q168 158 180 123T221
70T296 52Q316 52 336 54T381 64L419 150H467L448 22Q406 7 365 -1T268 -10ZM192 -220Q157 -220 127 -206L142 -175Q152 -179 161 -180T180 -181Q209 -181 228 -165T247 -123Q247 -108 235 -98T191 -86L188 -71L230 7H270L244 -45Q291 -45 312 -62T334 -106Q334
-140 314 -166T261 -206T192 -220Z" />
<glyph unicode="&#xc8;" horiz-adv-x="522" d="M-13 0L-6 41L81 63L176 550L97 572L105 613H538L511 472H464L461 551H292L249 332H364L394 398H439L402 211H358L351 280H239L197 64H381L423 157H470L440 0H-13ZM437 640L212 747L214 768L304 800L458 669L437 640Z" />
<glyph unicode="&#xc9;" horiz-adv-x="522" d="M-13 0L-6 41L81 63L176 550L97 572L105 613H538L511 472H464L461 551H292L249 332H364L394 398H439L402 211H358L351 280H239L197 64H381L423 157H470L440 0H-13ZM288 640L265 669L420 800L511 768V747L288 640Z" />
<glyph unicode="&#xca;" horiz-adv-x="522" d="M-13 0L-6 41L81 63L176 550L97 572L105 613H538L511 472H464L461 551H292L249 332H364L394 398H439L402 211H358L351 280H239L197 64H381L423 157H470L440 0H-13ZM233 643L211 669L343 798H419L500 666L472 643L369
717L233 643Z" />
<glyph unicode="&#xcb;" horiz-adv-x="522" d="M-13 0L-6 41L81 63L176 550L97 572L105 613H538L511 472H464L461 551H292L249 332H364L394 398H439L402 211H358L351 280H239L197 64H381L423 157H470L440 0H-13ZM474 655Q447 655 426 674T405 721Q405 750 426
769T474 789Q501 789 521 770T542 721Q542 694 522 675T474 655ZM256 655Q228 655 207 674T185 721Q185 750 206 769T256 789Q283 789 303 770T324 721Q324 694 304 675T256 655Z" />
<glyph unicode="&#xcc;" horiz-adv-x="346" d="M-13 0L-6 41L80 63L174 550L97 572L105 613H383L376 572L290 550L195 63L272 41L265 0H-13ZM329 640L104 747L106 768L196 800L350 669L329 640Z" />
<glyph unicode="&#xcd;" horiz-adv-x="346" d="M-13 0L-6 41L80 63L174 550L97 572L105 613H383L376 572L290 550L195 63L272 41L265 0H-13ZM180 640L157 669L312 800L403 768V747L180 640Z" />
<glyph unicode="&#xce;" horiz-adv-x="346" d="M-13 0L-6 41L80 63L174 550L97 572L105 613H383L376 572L290 550L195 63L272 41L265 0H-13ZM125 643L103 669L235 798H311L392 666L364 643L261 717L125 643Z" />
<glyph unicode="&#xcf;" horiz-adv-x="346" d="M-13 0L-6 41L80 63L174 550L97 572L105 613H383L376 572L290 550L195 63L272 41L265 0H-13ZM623 655Q596 655 575 674T554 721Q554 750 575 769T623 789Q650 789 670 770T691 721Q691 694 671 675T623 655ZM405
655Q377 655 356 674T334 721Q334 750 355 769T405 789Q432 789 452 770T473 721Q473 694 453 675T405 655Z" />
<glyph unicode="&#xd0;" horiz-adv-x="631" d="M-10 0L-3 41L83 63L124 275H56L66 328H134L177 550L100 572L108 613H372Q499 613 557 556T616 403Q616 325 594 254T528 125T418 34T265 0H-10ZM277 54Q322 54 357 75T417 132T458 214T482 308T490 404Q490 483
457 520T356 557Q333 557 318 555T293 551L250 328H343L333 275H239L199 66Q214 60 234 57T277 54Z" />
<glyph unicode="&#xd1;" horiz-adv-x="672" d="M434 -11L219 455L143 63L219 41L211 0H-13L-5 41L77 63L171 551L98 572L105 613H270L483 157L558 551L482 572L490 613H714L707 572L623 551L517 0L434 -11ZM506 660Q489 660 466 666T419 679T373 692T338 698Q329
698 321 693T307 681T296 666L255 682Q271 724 292 753T338 783Q361 783 393 774T456 755T506 745Q515 745 523 750T538 763T548 778L588 761Q570 720 551 690T506 660Z" />
<glyph unicode="&#xd2;" horiz-adv-x="627" d="M265 -10Q183 -10 133 16T61 92T39 210Q39 290 62 365T129 499T238 592T388 627Q472 627 521 600T591 524T613 414Q613 333 591 258T524 122T415 26T265 -10ZM277 51Q324 51 359 74T419 136T459 221T480 319T487
415Q487 461 478 495T444 547T376 566Q323 566 286 539T226 468T189 375T171 281T166 208Q166 161 175 126T208 71T277 51ZM472 640L247 747L249 768L339 800L493 669L472 640Z" />
<glyph unicode="&#xd3;" horiz-adv-x="627" d="M265 -10Q183 -10 133 16T61 92T39 210Q39 290 62 365T129 499T238 592T388 627Q472 627 521 600T591 524T613 414Q613 333 591 258T524 122T415 26T265 -10ZM277 51Q324 51 359 74T419 136T459 221T480 319T487
415Q487 461 478 495T444 547T376 566Q323 566 286 539T226 468T189 375T171 281T166 208Q166 161 175 126T208 71T277 51ZM323 640L300 669L455 800L546 768V747L323 640Z" />
<glyph unicode="&#xd4;" horiz-adv-x="627" d="M265 -10Q183 -10 133 16T61 92T39 210Q39 290 62 365T129 499T238 592T388 627Q472 627 521 600T591 524T613 414Q613 333 591 258T524 122T415 26T265 -10ZM277 51Q324 51 359 74T419 136T459 221T480 319T487
415Q487 461 478 495T444 547T376 566Q323 566 286 539T226 468T189 375T171 281T166 208Q166 161 175 126T208 71T277 51ZM268 643L246 669L378 798H454L535 666L507 643L404 717L268 643Z" />
<glyph unicode="&#xd5;" horiz-adv-x="627" d="M265 -10Q183 -10 133 16T61 92T39 210Q39 290 62 365T129 499T238 592T388 627Q472 627 521 600T591 524T613 414Q613 333 591 258T524 122T415 26T265 -10ZM277 51Q324 51 359 74T419 136T459 221T480 319T487
415Q487 461 478 495T444 547T376 566Q323 566 286 539T226 468T189 375T171 281T166 208Q166 161 175 126T208 71T277 51ZM488 660Q471 660 448 666T401 679T355 692T320 698Q311 698 303 693T289 681T278 666L237 682Q253 724 274 753T320 783Q343 783 375 774T438
755T488 745Q497 745 505 750T520 763T530 778L570 761Q552 720 533 690T488 660Z" />
<glyph unicode="&#xd6;" horiz-adv-x="627" d="M265 -10Q183 -10 133 16T61 92T39 210Q39 290 62 365T129 499T238 592T388 627Q472 627 521 600T591 524T613 414Q613 333 591 258T524 122T415 26T265 -10ZM277 51Q324 51 359 74T419 136T459 221T480 319T487
415Q487 461 478 495T444 547T376 566Q323 566 286 539T226 468T189 375T171 281T166 208Q166 161 175 126T208 71T277 51ZM509 655Q482 655 461 674T440 721Q440 750 461 769T509 789Q536 789 556 770T577 721Q577 694 557 675T509 655ZM291 655Q263 655 242 674T220
721Q220 750 241 769T291 789Q318 789 338 770T359 721Q359 694 339 675T291 655Z" />
<glyph unicode="&#xd7;" horiz-adv-x="514" d="M115 123L66 174L198 305L66 438L117 488L248 356L379 486L430 437L298 305L430 175L381 125L248 256L115 123Z" />
<glyph unicode="&#xd8;" horiz-adv-x="628" d="M159 -93L189 -2Q107 14 73 69T38 210Q38 290 61 365T128 499T237 592T388 627H393L420 709H487L458 621Q543 604 578 548T613 414Q613 333 590 258T524 122T415 26T264 -10H253L226 -93H159ZM211 68L373 566Q334
566 303 549T249 501T210 435T184 358T170 279T165 208Q165 159 175 123T211 68ZM273 51Q318 51 353 72T414 130T455 213T479 312T487 415Q487 463 476 498T435 551L273 51Z" />
<glyph unicode="&#xd9;" horiz-adv-x="621" d="M268 -10Q197 -10 155 11T96 70T78 157Q78 181 81 208T91 265L146 551L71 572L79 613H353L346 572L262 551L207 264Q201 235 198 208T194 156Q194 109 215 80T294 51Q347 51 382 78T437 148T467 242L527 551L451
572L458 613H684L676 572L594 551L533 236Q527 204 512 162T468 81T391 16T268 -10ZM484 640L259 747L261 768L351 800L505 669L484 640Z" />
<glyph unicode="&#xda;" horiz-adv-x="621" d="M268 -10Q197 -10 155 11T96 70T78 157Q78 181 81 208T91 265L146 551L71 572L79 613H353L346 572L262 551L207 264Q201 235 198 208T194 156Q194 109 215 80T294 51Q347 51 382 78T437 148T467 242L527 551L451
572L458 613H684L676 572L594 551L533 236Q527 204 512 162T468 81T391 16T268 -10ZM335 640L312 669L467 800L558 768V747L335 640Z" />
<glyph unicode="&#xdb;" horiz-adv-x="621" d="M268 -10Q197 -10 155 11T96 70T78 157Q78 181 81 208T91 265L146 551L71 572L79 613H353L346 572L262 551L207 264Q201 235 198 208T194 156Q194 109 215 80T294 51Q347 51 382 78T437 148T467 242L527 551L451
572L458 613H684L676 572L594 551L533 236Q527 204 512 162T468 81T391 16T268 -10ZM279 643L257 669L389 798H465L546 666L518 643L415 717L279 643Z" />
<glyph unicode="&#xdc;" horiz-adv-x="621" d="M268 -10Q197 -10 155 11T96 70T78 157Q78 181 81 208T91 265L146 551L71 572L79 613H353L346 572L262 551L207 264Q201 235 198 208T194 156Q194 109 215 80T294 51Q347 51 382 78T437 148T467 242L527 551L451
572L458 613H684L676 572L594 551L533 236Q527 204 512 162T468 81T391 16T268 -10ZM521 655Q494 655 473 674T452 721Q452 750 473 769T521 789Q548 789 568 770T589 721Q589 694 569 675T521 655ZM303 655Q275 655 254 674T232 721Q232 750 253 769T303 789Q330
789 350 770T371 721Q371 694 351 675T303 655Z" />
<glyph unicode="&#xdd;" horiz-adv-x="539" d="M78 0L85 41L177 63L214 253L129 549L67 572L75 612L315 613L307 571L242 550L306 317L458 552L396 572L404 613H606L599 573L527 550L327 245L292 63L375 41L367 0H78ZM291 640L268 669L423 800L514 768V747L291 640Z" />
<glyph unicode="&#xde;" horiz-adv-x="489" d="M-13 0L-6 41L80 63L174 550L97 572L105 613H383L376 572L290 550L276 481H330Q413 481 454 449T495 352Q495 295 473 255T416 188T340 148T261 135Q250 135 236 136T210 139L195 63L272 41L265 0H-13ZM250 183Q278
183 303 193T346 223T376 274T387 348Q387 376 377 394T349 420T306 429Q292 429 285 428T265 424L219 186Q225 185 232 184T250 183Z" />
<glyph unicode="&#xdf;" horiz-adv-x="631" d="M409 -9Q373 -9 338 -4T280 12L317 142H357V60Q373 56 385 55T409 53Q454 53 479 69T504 115Q504 142 487 161T443 196T391 232T347 278T329 343Q329 378 343 403T378 448T419 486T454 526T469 574Q469 606 449 623T389
640Q335 640 306 610T262 507L176 59L251 40L243 0H-26L-17 40L67 59L138 428H66L75 473L152 495Q169 567 201 614T284 683T403 706Q484 706 528 673T572 580Q572 545 558 521T522 480T480 448T444 416T429 375Q429 349 446 331T490 295T542 258T585 211T603 142Q603
74 550 33T409 -9Z" />
<glyph unicode="&#xe0;" horiz-adv-x="532" d="M157 -9Q124 -9 95 4T48 51T31 143Q31 256 68 338T168 465T311 510Q337 510 366 504T411 493L435 530L490 521L431 210Q423 168 418 126T412 60H488V19Q448 3 417 -3T358 -9Q329 -9 314 3T298 39Q298 43 298 51T300
70T303 89Q284 60 259 38T208 3T157 -9ZM193 66Q210 66 232 81T276 117T308 155L363 434Q350 442 336 445T307 449Q268 449 239 425T189 358T158 261T148 145Q148 100 160 83T193 66ZM405 570L179 677L182 698L271 730L425 599L405 570Z" />
<glyph unicode="&#xe1;" horiz-adv-x="532" d="M157 -9Q124 -9 95 4T48 51T31 143Q31 256 68 338T168 465T311 510Q337 510 366 504T411 493L435 530L490 521L431 210Q423 168 418 126T412 60H488V19Q448 3 417 -3T358 -9Q329 -9 314 3T298 39Q298 43 298 51T300
70T303 89Q284 60 259 38T208 3T157 -9ZM193 66Q210 66 232 81T276 117T308 155L363 434Q350 442 336 445T307 449Q268 449 239 425T189 358T158 261T148 145Q148 100 160 83T193 66ZM246 558L223 587L378 722L469 686V665L246 558Z" />
<glyph unicode="&#xe2;" horiz-adv-x="532" d="M157 -9Q124 -9 95 4T48 51T31 143Q31 256 68 338T168 465T311 510Q337 510 366 504T411 493L435 530L490 521L431 210Q423 168 418 126T412 60H488V19Q448 3 417 -3T358 -9Q329 -9 314 3T298 39Q298 43 298 51T300
70T303 89Q284 60 259 38T208 3T157 -9ZM193 66Q210 66 232 81T276 117T308 155L363 434Q350 442 336 445T307 449Q268 449 239 425T189 358T158 261T148 145Q148 100 160 83T193 66ZM219 567L194 594L316 730H392L462 588L427 567L342 648L219 567Z" />
<glyph unicode="&#xe3;" horiz-adv-x="532" d="M157 -9Q124 -9 95 4T48 51T31 143Q31 256 68 338T168 465T311 510Q337 510 366 504T411 493L435 530L490 521L431 210Q423 168 418 126T412 60H488V19Q448 3 417 -3T358 -9Q329 -9 314 3T298 39Q298 43 298 51T300
70T303 89Q284 60 259 38T208 3T157 -9ZM193 66Q210 66 232 81T276 117T308 155L363 434Q350 442 336 445T307 449Q268 449 239 425T189 358T158 261T148 145Q148 100 160 83T193 66ZM415 590Q394 590 364 599T304 618T257 628Q246 628 236 620T221 604T215 595L174
612Q192 653 212 682T257 712Q279 712 309 703T368 684T415 674Q428 674 437 682T451 698T457 706L497 690Q479 649 460 620T415 590Z" />
<glyph unicode="&#xe4;" horiz-adv-x="532" d="M157 -9Q124 -9 95 4T48 51T31 143Q31 256 68 338T168 465T311 510Q337 510 366 504T411 493L435 530L490 521L431 210Q423 168 418 126T412 60H488V19Q448 3 417 -3T358 -9Q329 -9 314 3T298 39Q298 43 298 51T300
70T303 89Q284 60 259 38T208 3T157 -9ZM193 66Q210 66 232 81T276 117T308 155L363 434Q350 442 336 445T307 449Q268 449 239 425T189 358T158 261T148 145Q148 100 160 83T193 66ZM440 584Q412 584 391 603T370 650Q370 679 391 698T440 718Q467 718 487 699T507
650Q507 622 487 603T440 584ZM241 584Q213 584 192 603T171 650Q171 679 192 698T241 718Q269 718 289 699T309 650Q309 622 289 603T241 584Z" />
<glyph unicode="&#xe5;" horiz-adv-x="532" d="M157 -9Q124 -9 95 4T48 51T31 143Q31 256 68 338T168 465T311 510Q337 510 366 504T411 493L435 530L490 521L431 210Q423 168 418 126T412 60H488V19Q448 3 417 -3T358 -9Q329 -9 314 3T298 39Q298 43 298 51T300
70T303 89Q284 60 259 38T208 3T157 -9ZM193 66Q210 66 232 81T276 117T308 155L363 434Q350 442 336 445T307 449Q268 449 239 425T189 358T158 261T148 145Q148 100 160 83T193 66ZM329 550Q282 550 259 574T235 633Q235 667 249 695T292 740T360 758Q409 758
431 733T454 672Q454 636 439 609T395 566T329 550ZM336 596Q367 596 377 619T387 674Q387 691 380 701T353 712Q322 712 312 687T301 631Q301 615 308 606T336 596Z" />
<glyph unicode="&#xe6;" horiz-adv-x="715" d="M157 -10Q123 -10 94 3T48 50T31 143Q31 256 68 338T168 466T311 511Q329 511 346 509T380 503T406 496L435 530L481 519L470 471Q486 483 508 492T555 506T604 511Q657 511 690 487T724 413Q724 331 651 284T441
236Q438 217 437 202T435 167Q435 130 445 106T477 70T535 58Q555 58 580 62T630 76L640 32Q613 16 575 3T480 -10Q424 -10 382 17T326 106Q294 64 265 39T208 2T157 -10ZM193 66Q210 66 232 80T275 115T308 153L363 436Q350 444 338 447T307 451Q267 451 238 427T188
359T158 261T148 145Q148 100 160 83T193 66ZM448 283Q526 283 574 314T622 402Q622 421 613 435T578 449Q531 449 497 406T448 283Z" />
<glyph unicode="&#xe7;" horiz-adv-x="402" d="M191 -10Q145 -10 109 6T53 58T32 150Q32 222 49 287T102 402T190 482T315 511Q345 511 374 506T428 489L398 356H351L341 444Q331 447 321 448T300 449Q259 449 231 425T185 360T159 270T151 171Q151 114 169 86T235
57Q255 57 279 62T330 76L341 32Q305 10 265 0T191 -10ZM128 -220Q93 -220 63 -206L78 -175Q88 -179 97 -180T116 -181Q145 -181 164 -165T183 -123Q183 -108 171 -98T127 -86L124 -71L166 7H206L180 -45Q227 -45 248 -62T270 -106Q270 -140 250 -166T197 -206T128
-220Z" />
<glyph unicode="&#xe8;" horiz-adv-x="431" d="M195 -10Q146 -10 110 7T54 63T34 163Q34 225 50 287T101 400T190 481T320 511Q371 511 405 487T439 413Q439 331 366 284T156 236Q153 217 152 202T150 167Q150 130 159 106T191 70T250 58Q271 58 296 62T345 76L355
33Q328 16 290 3T195 -10ZM163 283Q241 283 289 314T337 402Q337 421 328 435T293 449Q246 449 212 406T163 283ZM360 570L134 677L137 698L226 730L380 599L360 570Z" />
<glyph unicode="&#xe9;" horiz-adv-x="431" d="M195 -10Q146 -10 110 7T54 63T34 163Q34 225 50 287T101 400T190 481T320 511Q371 511 405 487T439 413Q439 331 366 284T156 236Q153 217 152 202T150 167Q150 130 159 106T191 70T250 58Q271 58 296 62T345 76L355
33Q328 16 290 3T195 -10ZM163 283Q241 283 289 314T337 402Q337 421 328 435T293 449Q246 449 212 406T163 283ZM201 558L178 587L333 722L424 686V665L201 558Z" />
<glyph unicode="&#xea;" horiz-adv-x="431" d="M195 -10Q146 -10 110 7T54 63T34 163Q34 225 50 287T101 400T190 481T320 511Q371 511 405 487T439 413Q439 331 366 284T156 236Q153 217 152 202T150 167Q150 130 159 106T191 70T250 58Q271 58 296 62T345 76L355
33Q328 16 290 3T195 -10ZM163 283Q241 283 289 314T337 402Q337 421 328 435T293 449Q246 449 212 406T163 283ZM174 567L149 594L271 730H347L417 588L382 567L297 648L174 567Z" />
<glyph unicode="&#xeb;" horiz-adv-x="431" d="M195 -10Q146 -10 110 7T54 63T34 163Q34 225 50 287T101 400T190 481T320 511Q371 511 405 487T439 413Q439 331 366 284T156 236Q153 217 152 202T150 167Q150 130 159 106T191 70T250 58Q271 58 296 62T345 76L355
33Q328 16 290 3T195 -10ZM163 283Q241 283 289 314T337 402Q337 421 328 435T293 449Q246 449 212 406T163 283ZM395 584Q367 584 346 603T325 650Q325 679 346 698T395 718Q422 718 442 699T462 650Q462 622 442 603T395 584ZM196 584Q168 584 147 603T126 650Q126
679 147 698T196 718Q224 718 244 699T264 650Q264 622 244 603T196 584Z" />
<glyph unicode="&#xec;" horiz-adv-x="303" d="M114 -10Q84 -10 69 1T53 43Q53 51 58 80T73 151T92 243T112 342T131 432L62 440L54 476Q88 486 123 494T186 506T229 511Q239 511 244 506T250 489Q250 485 244 454T229 375T209 271T187 160T166 60H244V18Q206
4 173 -3T114 -10ZM543 570L317 677L320 698L409 730L563 599L543 570Z" />
<glyph unicode="&#xed;" horiz-adv-x="303" d="M114 -10Q84 -10 69 1T53 43Q53 51 58 80T73 151T92 243T112 342T131 432L62 440L54 476Q88 486 123 494T186 506T229 511Q239 511 244 506T250 489Q250 485 244 454T229 375T209 271T187 160T166 60H244V18Q206
4 173 -3T114 -10ZM128 558L105 587L260 722L351 686V665L128 558Z" />
<glyph unicode="&#xee;" horiz-adv-x="303" d="M114 -10Q84 -10 69 1T53 43Q53 51 58 80T73 151T92 243T112 342T131 432L62 440L54 476Q88 486 123 494T186 506T229 511Q239 511 244 506T250 489Q250 485 244 454T229 375T209 271T187 160T166 60H244V18Q206
4 173 -3T114 -10ZM101 567L76 594L198 730H274L344 588L309 567L224 648L101 567Z" />
<glyph unicode="&#xef;" horiz-adv-x="303" d="M114 -10Q84 -10 69 1T53 43Q53 51 58 80T73 151T92 243T112 342T131 432L62 440L54 476Q88 486 123 494T186 506T229 511Q239 511 244 506T250 489Q250 485 244 454T229 375T209 271T187 160T166 60H244V18Q206
4 173 -3T114 -10ZM578 584Q550 584 529 603T508 650Q508 679 529 698T578 718Q605 718 625 699T645 650Q645 622 625 603T578 584ZM379 584Q351 584 330 603T309 650Q309 679 330 698T379 718Q407 718 427 699T447 650Q447 622 427 603T379 584Z" />
<glyph unicode="&#xf0;" horiz-adv-x="502" d="M182 -10Q104 -10 68 31T32 142Q32 260 68 342T170 467T320 511Q326 511 330 511T340 510Q335 529 328 547T311 583L225 527L198 573L285 628Q270 650 253 672T214 719L252 755Q277 734 300 712T345 666L432 721L460
678L377 624Q422 562 447 494T473 361V340Q472 333 472 327T471 313Q463 211 426 139T326 29T182 -10ZM208 50Q250 50 278 79T324 154T348 255T355 360Q355 400 344 425T297 450Q262 450 237 430T194 376T168 301T154 218T150 141Q150 100 161 75T208 50Z" />
<glyph unicode="&#xf1;" horiz-adv-x="568" d="M45 -10L132 429L60 438L52 473Q81 483 114 491T176 504T226 510Q239 510 245 503T251 484Q251 479 249 464T244 432T238 406Q274 440 312 464T386 500T447 512Q481 512 494 496T508 447Q508 436 503 406T490 332T471
241T451 146T432 60H512V18Q484 5 451 -2T390 -10Q358 -10 339 2T320 51Q320 60 325 86T338 148T355 224T372 300T386 364T391 402Q391 413 386 421T367 429Q351 429 326 418T274 386T227 342L168 5L45 -10ZM415 590Q394 590 364 599T304 618T257 628Q246 628 236
620T221 604T215 595L174 612Q192 653 212 682T257 712Q279 712 309 703T368 684T415 674Q428 674 437 682T451 698T457 706L497 690Q479 649 460 620T415 590Z" />
<glyph unicode="&#xf2;" horiz-adv-x="502" d="M182 -10Q104 -10 68 31T32 142Q32 260 68 342T170 467T320 511Q374 511 407 492T457 438T473 359Q473 243 436 161T334 34T182 -10ZM208 50Q250 50 278 79T324 154T348 255T355 360Q355 400 344 425T297 450Q262
450 237 430T194 376T168 301T154 218T150 141Q150 100 161 75T208 50ZM392 570L166 677L169 698L258 730L412 599L392 570Z" />
<glyph unicode="&#xf3;" horiz-adv-x="502" d="M182 -10Q104 -10 68 31T32 142Q32 260 68 342T170 467T320 511Q374 511 407 492T457 438T473 359Q473 243 436 161T334 34T182 -10ZM208 50Q250 50 278 79T324 154T348 255T355 360Q355 400 344 425T297 450Q262
450 237 430T194 376T168 301T154 218T150 141Q150 100 161 75T208 50ZM234 558L211 587L366 722L457 686V665L234 558Z" />
<glyph unicode="&#xf4;" horiz-adv-x="502" d="M182 -10Q104 -10 68 31T32 142Q32 260 68 342T170 467T320 511Q374 511 407 492T457 438T473 359Q473 243 436 161T334 34T182 -10ZM208 50Q250 50 278 79T324 154T348 255T355 360Q355 400 344 425T297 450Q262
450 237 430T194 376T168 301T154 218T150 141Q150 100 161 75T208 50ZM207 567L182 594L304 730H380L450 588L415 567L330 648L207 567Z" />
<glyph unicode="&#xf5;" horiz-adv-x="502" d="M182 -10Q104 -10 68 31T32 142Q32 260 68 342T170 467T320 511Q374 511 407 492T457 438T473 359Q473 243 436 161T334 34T182 -10ZM208 50Q250 50 278 79T324 154T348 255T355 360Q355 400 344 425T297 450Q262
450 237 430T194 376T168 301T154 218T150 141Q150 100 161 75T208 50ZM402 590Q381 590 351 599T291 618T244 628Q233 628 223 620T208 604T202 595L161 612Q179 653 199 682T244 712Q266 712 296 703T355 684T402 674Q415 674 424 682T438 698T444 706L484 690Q466
649 447 620T402 590Z" />
<glyph unicode="&#xf6;" horiz-adv-x="502" d="M182 -10Q104 -10 68 31T32 142Q32 260 68 342T170 467T320 511Q374 511 407 492T457 438T473 359Q473 243 436 161T334 34T182 -10ZM208 50Q250 50 278 79T324 154T348 255T355 360Q355 400 344 425T297 450Q262
450 237 430T194 376T168 301T154 218T150 141Q150 100 161 75T208 50ZM428 584Q400 584 379 603T358 650Q358 679 379 698T428 718Q455 718 475 699T495 650Q495 622 475 603T428 584ZM229 584Q201 584 180 603T159 650Q159 679 180 698T229 718Q257 718 277 699T297
650Q297 622 277 603T229 584Z" />
<glyph unicode="&#xf7;" horiz-adv-x="514" d="M55 269V339H459V269H55ZM258 98Q232 98 214 115T195 159Q195 185 213 203T258 221Q283 221 301 203T320 159Q320 133 302 116T258 98ZM258 387Q232 387 214 405T195 448Q195 474 213 492T258 510Q283 510 301 492T320
448Q320 423 302 405T258 387Z" />
<glyph unicode="&#xf8;" horiz-adv-x="502" d="M108 -92L136 -6Q82 6 57 45T32 143Q32 256 66 337T161 462T304 511L330 589H392L365 508Q421 496 447 456T473 359Q473 246 438 165T342 40T197 -9L170 -92H108ZM163 79L284 449Q252 446 229 424T190 369T166 295T153
215T149 141Q149 121 152 105T163 79ZM216 50Q256 54 283 84T326 159T348 258T355 360Q355 381 352 397T338 424L216 50Z" />
<glyph unicode="&#xf9;" horiz-adv-x="559" d="M141 -9Q117 -9 99 -2T72 23T63 68Q63 92 70 137T89 237T112 343T131 434L61 442L53 477Q83 487 116 494T180 506T230 511Q243 511 249 505T255 488Q255 483 249 456T234 388T216 303T197 216T183 144T177 102Q177
84 182 76T201 67Q220 67 245 79T297 116T346 179L404 497L522 513L460 204Q453 170 449 140T442 88T439 60H514V19Q474 3 443 -3T384 -9Q355 -9 340 3T324 39Q324 43 325 51T327 70T329 89Q307 60 275 38T207 3T141 -9ZM411 570L185 677L188 698L277 730L431 599L411
570Z" />
<glyph unicode="&#xfa;" horiz-adv-x="559" d="M141 -9Q117 -9 99 -2T72 23T63 68Q63 92 70 137T89 237T112 343T131 434L61 442L53 477Q83 487 116 494T180 506T230 511Q243 511 249 505T255 488Q255 483 249 456T234 388T216 303T197 216T183 144T177 102Q177
84 182 76T201 67Q220 67 245 79T297 116T346 179L404 497L522 513L460 204Q453 170 449 140T442 88T439 60H514V19Q474 3 443 -3T384 -9Q355 -9 340 3T324 39Q324 43 325 51T327 70T329 89Q307 60 275 38T207 3T141 -9ZM253 558L230 587L385 722L476 686V665L253
558Z" />
<glyph unicode="&#xfb;" horiz-adv-x="559" d="M141 -9Q117 -9 99 -2T72 23T63 68Q63 92 70 137T89 237T112 343T131 434L61 442L53 477Q83 487 116 494T180 506T230 511Q243 511 249 505T255 488Q255 483 249 456T234 388T216 303T197 216T183 144T177 102Q177
84 182 76T201 67Q220 67 245 79T297 116T346 179L404 497L522 513L460 204Q453 170 449 140T442 88T439 60H514V19Q474 3 443 -3T384 -9Q355 -9 340 3T324 39Q324 43 325 51T327 70T329 89Q307 60 275 38T207 3T141 -9ZM226 567L201 594L323 730H399L469 588L434
567L349 648L226 567Z" />
<glyph unicode="&#xfc;" horiz-adv-x="559" d="M141 -9Q117 -9 99 -2T72 23T63 68Q63 92 70 137T89 237T112 343T131 434L61 442L53 477Q83 487 116 494T180 506T230 511Q243 511 249 505T255 488Q255 483 249 456T234 388T216 303T197 216T183 144T177 102Q177
84 182 76T201 67Q220 67 245 79T297 116T346 179L404 497L522 513L460 204Q453 170 449 140T442 88T439 60H514V19Q474 3 443 -3T384 -9Q355 -9 340 3T324 39Q324 43 325 51T327 70T329 89Q307 60 275 38T207 3T141 -9ZM447 584Q419 584 398 603T377 650Q377 679
398 698T447 718Q474 718 494 699T514 650Q514 622 494 603T447 584ZM248 584Q220 584 199 603T178 650Q178 679 199 698T248 718Q276 718 296 699T316 650Q316 622 296 603T248 584Z" />
<glyph unicode="&#xfd;" horiz-adv-x="478" d="M76 -188L122 -10L124 49Q125 80 123 121T117 207T106 295T93 373T76 431L3 440L-5 476Q44 492 94 502T176 513Q182 513 190 486T206 413T220 313T230 200T232 91Q278 136 307 178T352 261T374 337T381 405Q381 416
380 422T376 434L319 441L311 477Q350 489 391 500T467 513Q470 503 472 491T474 466Q474 386 451 316T390 185T309 79T228 1L193 -172L76 -188ZM214 558L191 587L346 722L437 686V665L214 558Z" />
<glyph unicode="&#xfe;" horiz-adv-x="528" d="M13 -189L161 654L87 662L79 697Q109 707 141 715T203 729T253 734Q266 734 271 727T276 710Q276 706 274 690T267 648Q258 599 248 542T227 422Q249 448 274 468T328 500T384 512Q417 512 443 499T485 456T501 373Q501
319 492 265T463 163T409 76T329 16T218 -6Q200 -6 186 -5T160 -1Q152 -56 145 -100T133 -172L13 -189ZM236 55Q268 55 293 73T335 125T363 197T379 280T384 362Q384 406 372 421T338 437Q327 437 311 429T278 408T244 380T216 350Q211 323 207 295T197 233T186
161T171 72Q182 65 199 60T236 55Z" />
<glyph unicode="&#xff;" horiz-adv-x="478" d="M76 -188L122 -10L124 49Q125 80 123 121T117 207T106 295T93 373T76 431L3 440L-5 476Q44 492 94 502T176 513Q182 513 190 486T206 413T220 313T230 200T232 91Q278 136 307 178T352 261T374 337T381 405Q381 416
380 422T376 434L319 441L311 477Q350 489 391 500T467 513Q470 503 472 491T474 466Q474 386 451 316T390 185T309 79T228 1L193 -172L76 -188ZM408 584Q380 584 359 603T338 650Q338 679 359 698T408 718Q435 718 455 699T475 650Q475 622 455 603T408 584ZM209
584Q181 584 160 603T139 650Q139 679 160 698T209 718Q237 718 257 699T277 650Q277 622 257 603T209 584Z" />
<glyph unicode="&#x2013;" horiz-adv-x="724" d="M3 206L13 271H718L708 206H3Z" />
<glyph unicode="&#x2014;" horiz-adv-x="837" d="M3 206L13 271H831L821 206H3Z" />
<glyph unicode="&#x2018;" horiz-adv-x="182" d="M80 430L61 453L194 675L234 667L178 450L80 430Z" />
<glyph unicode="&#x2019;" horiz-adv-x="182" d="M94 430L55 438L110 653L207 675L227 651L94 430Z" />
<glyph unicode="&#x201a;" horiz-adv-x="199" d="M13 -117L-23 -110L31 99L125 120L140 96L13 -117Z" />
<glyph unicode="&#x201c;" horiz-adv-x="347" d="M243 430L223 453L356 675L396 667L340 450L243 430ZM77 430L58 453L192 675L231 667L175 450L77 430Z" />
<glyph unicode="&#x201d;" horiz-adv-x="347" d="M255 430L216 438L272 653L370 675L388 651L255 430ZM90 430L51 438L106 653L204 675L224 651L90 430Z" />
<glyph unicode="&#x201e;" horiz-adv-x="358" d="M167 -123L127 -115L183 101L281 122L300 98L167 -123ZM2 -123L-37 -115L18 101L115 122L135 98L2 -123Z" />
<glyph unicode="&#x2022;" horiz-adv-x="471" d="M250 203Q210 203 177 223T124 276T104 348Q104 389 123 421T176 473T250 493Q290 493 322 474T375 422T396 348Q396 309 376 276T323 223T250 203Z" />
<glyph unicode="&#x2039;" horiz-adv-x="250" d="M134 65L30 242L204 421L244 391L137 242L186 95L134 65Z" />
<glyph unicode="&#x203a;" horiz-adv-x="250" d="M63 65L23 95L131 243L80 391L133 421L236 243L63 65Z" />
</font>
</defs>
</svg>
